<svg width="20" height="21" viewBox="0 0 20 21" fill="none" xmlns="http://www.w3.org/2000/svg">
<g clip-path="url(#clip0_0_927)">
<path d="M19.0121 6.67188C18.9902 6.525 18.968 6.38399 18.9453 6.24883C18.6113 4.35469 16.9152 2.63438 15.0312 2.25234V1.48594C15.0261 1.2278 14.92 0.981965 14.7356 0.801222C14.5512 0.620479 14.3033 0.519238 14.0451 0.519238C13.7869 0.519238 13.539 0.620479 13.3547 0.801222C13.1703 0.981965 13.0641 1.2278 13.059 1.48594V1.99063C12.4453 1.9332 11.7582 1.88906 10.9887 1.86758V1.48594C10.9887 1.35633 10.9631 1.228 10.9135 1.10828C10.8638 0.988554 10.7911 0.879796 10.6993 0.788223C10.6076 0.696649 10.4988 0.624058 10.379 0.574602C10.2592 0.525146 10.1308 0.499796 10.0012 0.500001C9.73969 0.500001 9.48891 0.603877 9.30401 0.788776C9.11911 0.973675 9.01523 1.22445 9.01523 1.48594V1.86719C8.24414 1.88867 7.55703 1.93281 6.94492 1.99024V1.48594C6.93978 1.2278 6.83363 0.981965 6.64925 0.801222C6.46488 0.620479 6.21698 0.519238 5.95879 0.519238C5.7006 0.519238 5.4527 0.620479 5.26832 0.801222C5.08395 0.981965 4.97779 1.2278 4.97266 1.48594V2.25234C3.08711 2.63438 1.39102 4.35469 1.05586 6.24688C1.0332 6.38386 1.01068 6.52708 0.988281 6.67656C3.70352 6.50586 11.2902 6.13125 19.0121 6.67188Z" fill="#3E97FF"/>
<path d="M19.1918 8.17035C11.1738 7.58714 3.23398 8.0141 0.809375 8.17464C0.73125 9.02621 0.678906 10.0184 0.677734 11.1762C0.680078 13.3477 0.862109 14.9379 1.05625 16.1063C1.39648 18.0317 3.14531 19.7782 5.0707 20.1203C6.23906 20.3157 7.8293 20.4969 10.0008 20.4993C12.1723 20.5016 13.7625 20.3149 14.9309 20.1203C16.8563 19.7801 18.6051 18.0317 18.9449 16.1063C19.1402 14.9379 19.3215 13.3477 19.3238 11.1762C19.3227 10.0164 19.2699 9.02269 19.1918 8.17035ZM6.96875 15.77C6.94137 15.898 6.87742 16.0154 6.78464 16.1078C6.69187 16.2002 6.57426 16.2638 6.44609 16.2907C6.02219 16.3563 5.5907 16.3563 5.1668 16.2907C5.03956 16.2629 4.92304 16.199 4.83123 16.1066C4.73943 16.0143 4.67622 15.8974 4.64922 15.77C4.58357 15.346 4.58357 14.9146 4.64922 14.4907C4.67639 14.3628 4.74002 14.2455 4.83243 14.153C4.92484 14.0606 5.04206 13.9968 5.16992 13.9696C5.59383 13.9039 6.02531 13.9039 6.44922 13.9696C6.57715 13.9968 6.69446 14.0605 6.78694 14.1529C6.87942 14.2454 6.94312 14.3627 6.97031 14.4907C7.03596 14.9146 7.03596 15.346 6.97031 15.77H6.96875ZM6.96875 11.8129C6.94164 11.9413 6.87781 12.059 6.78501 12.1517C6.69222 12.2444 6.57447 12.3082 6.44609 12.3352C6.02219 12.4008 5.5907 12.4008 5.1668 12.3352C5.03936 12.3073 4.9227 12.2432 4.83087 12.1505C4.73904 12.0578 4.67596 11.9406 4.64922 11.8129C4.58359 11.3889 4.58359 10.9573 4.64922 10.5332C4.67645 10.4054 4.74012 10.2882 4.83252 10.1958C4.92493 10.1034 5.04211 10.0398 5.16992 10.0125C5.59383 9.94689 6.02531 9.94689 6.44922 10.0125C6.5771 10.0397 6.69437 10.1033 6.78685 10.1957C6.87933 10.2882 6.94305 10.4054 6.97031 10.5332C7.03594 10.9573 7.03594 11.3889 6.97031 11.8129H6.96875ZM11.1613 15.77C11.1341 15.8978 11.0704 16.015 10.978 16.1074C10.8856 16.1998 10.7684 16.2634 10.6406 16.2907C10.2166 16.3563 9.78498 16.3563 9.36094 16.2907C9.23313 16.2634 9.11594 16.1998 9.02354 16.1074C8.93114 16.015 8.86747 15.8978 8.84023 15.77C8.77459 15.346 8.77459 14.9146 8.84023 14.4907C8.8674 14.3628 8.93104 14.2455 9.02345 14.153C9.11585 14.0606 9.23308 13.9968 9.36094 13.9696C9.78498 13.9039 10.2166 13.9039 10.6406 13.9696C10.7685 13.9968 10.8857 14.0606 10.9781 14.153C11.0705 14.2455 11.1342 14.3628 11.1613 14.4907C11.227 14.9146 11.227 15.346 11.1613 15.77ZM11.1613 11.8129C11.1344 11.941 11.0708 12.0585 10.9784 12.1512C10.886 12.2439 10.7686 12.3078 10.6406 12.3352C10.2166 12.4008 9.78498 12.4008 9.36094 12.3352C9.23313 12.308 9.11594 12.2443 9.02354 12.1519C8.93114 12.0595 8.86747 11.9423 8.84023 11.8145C8.77461 11.3904 8.77461 10.9588 8.84023 10.5348C8.86747 10.407 8.93114 10.2898 9.02354 10.1974C9.11594 10.105 9.23313 10.0413 9.36094 10.0141C9.78498 9.94847 10.2166 9.94847 10.6406 10.0141C10.7684 10.0413 10.8856 10.105 10.978 10.1974C11.0704 10.2898 11.1341 10.407 11.1613 10.5348C11.227 10.9588 11.227 11.3904 11.1613 11.8145V11.8129ZM15.3539 11.8129C15.3269 11.941 15.2634 12.0585 15.171 12.1512C15.0785 12.2439 14.9612 12.3078 14.8332 12.3352C14.4098 12.4007 13.9789 12.4007 13.5555 12.3352C13.4276 12.308 13.3103 12.2444 13.2178 12.152C13.1254 12.0596 13.0616 11.9423 13.0344 11.8145C12.9688 11.3904 12.9688 10.9588 13.0344 10.5348C13.0614 10.4067 13.125 10.2891 13.2175 10.1964C13.31 10.1037 13.4274 10.0398 13.5555 10.0125C13.9794 9.94689 14.4109 9.94689 14.8348 10.0125C14.962 10.0403 15.0785 10.1042 15.1703 10.1966C15.2621 10.2889 15.3253 10.4058 15.3523 10.5332C15.418 10.9573 15.418 11.3889 15.3523 11.8129H15.3539ZM15.3539 15.77C15.3267 15.8978 15.263 16.015 15.1706 16.1074C15.0782 16.1998 14.961 16.2634 14.8332 16.2907C14.4093 16.3563 13.9778 16.3563 13.5539 16.2907C13.426 16.2635 13.3088 16.1999 13.2163 16.1074C13.1238 16.015 13.0601 15.8978 13.0328 15.77C12.9672 15.346 12.9672 14.9146 13.0328 14.4907C13.0601 14.3625 13.124 14.2451 13.2168 14.1526C13.3096 14.0601 13.4273 13.9965 13.5555 13.9696C13.9794 13.9039 14.4109 13.9039 14.8348 13.9696C14.9621 13.9974 15.0786 14.0613 15.1704 14.1538C15.2622 14.2462 15.3254 14.3632 15.3523 14.4907C15.418 14.9146 15.418 15.346 15.3523 15.77H15.3539Z" fill="#3E97FF"/>
</g>
<defs>
<clipPath id="clip0_0_927">
<rect width="20" height="20" fill="white" transform="translate(0 0.5)"/>
</clipPath>
</defs>
</svg>
