<svg width="22" height="22" viewBox="0 0 22 22" fill="none" xmlns="http://www.w3.org/2000/svg">
<path d="M16.8007 20.6251C15.962 20.6251 14.7838 20.3217 13.0195 19.336C10.874 18.1329 9.21458 17.0222 7.08075 14.8939C5.02341 12.8379 4.02224 11.5067 2.62102 8.95692C1.03806 6.07802 1.3079 4.56896 1.60954 3.924C1.96876 3.15314 2.49899 2.69208 3.18434 2.23446C3.57362 1.97942 3.98557 1.76078 4.41497 1.58134C4.45794 1.56286 4.4979 1.54525 4.53356 1.52935C4.74626 1.43353 5.06852 1.28872 5.47673 1.44341C5.74915 1.54568 5.99235 1.75493 6.37306 2.13091C7.1538 2.90091 8.22071 4.61579 8.61431 5.45798C8.87856 6.0256 9.05345 6.40028 9.05388 6.82052C9.05388 7.31251 8.80638 7.69192 8.50602 8.10142C8.44974 8.17833 8.39388 8.25181 8.33974 8.32314C8.01274 8.75282 7.94099 8.877 7.98825 9.09872C8.08407 9.54431 8.79864 10.8708 9.97298 12.0425C11.1473 13.2143 12.4355 13.8837 12.8828 13.9791C13.114 14.0285 13.2408 13.9538 13.6842 13.6152C13.7478 13.5666 13.8131 13.5163 13.8814 13.4661C14.3395 13.1253 14.7013 12.8843 15.1816 12.8843H15.1842C15.6023 12.8843 15.9602 13.0656 16.5532 13.3647C17.3266 13.7548 19.0931 14.808 19.8678 15.5896C20.2447 15.9694 20.4548 16.2118 20.5575 16.4838C20.7122 16.8933 20.5665 17.2142 20.4715 17.4291C20.4556 17.4647 20.438 17.5038 20.4195 17.5472C20.2387 17.9759 20.0187 18.387 19.7625 18.7753C19.3058 19.4585 18.843 19.9874 18.0704 20.3471C17.6737 20.5348 17.2396 20.6298 16.8007 20.6251Z" fill="white"/>
</svg>
