<svg width="67" height="67" viewBox="0 0 67 67" fill="none" xmlns="http://www.w3.org/2000/svg">
<circle cx="33.5" cy="33.5" r="33.5" fill="#2CA82A"/>
<path d="M33.5 37.3666C35.6355 37.3666 37.3666 35.6355 37.3666 33.5C37.3666 31.3645 35.6355 29.6333 33.5 29.6333C31.3645 29.6333 29.6333 31.3645 29.6333 33.5C29.6333 35.6355 31.3645 37.3666 33.5 37.3666Z" fill="black"/>
<path d="M29.875 21.4167L27.6637 23.8334H23.8333C22.5041 23.8334 21.4166 24.9209 21.4166 26.2501V40.7501C21.4166 42.0792 22.5041 43.1667 23.8333 43.1667H43.1666C44.4958 43.1667 45.5833 42.0792 45.5833 40.7501V26.2501C45.5833 24.9209 44.4958 23.8334 43.1666 23.8334H39.3362L37.125 21.4167H29.875ZM33.5 39.5417C30.165 39.5417 27.4583 36.8351 27.4583 33.5001C27.4583 30.1651 30.165 27.4584 33.5 27.4584C36.835 27.4584 39.5416 30.1651 39.5416 33.5001C39.5416 36.8351 36.835 39.5417 33.5 39.5417Z" fill="black"/>
</svg>
