<svg width="24" height="24" viewBox="0 0 24 24" fill="none" xmlns="http://www.w3.org/2000/svg">
<path d="M6.505 2H17.505C17.6602 2 17.8134 2.03614 17.9522 2.10557C18.0911 2.175 18.2119 2.2758 18.305 2.4L21.005 6V21C21.005 21.2652 20.8996 21.5196 20.7121 21.7071C20.5246 21.8946 20.2702 22 20.005 22H4.005C3.73979 22 3.48543 21.8946 3.2979 21.7071C3.11036 21.5196 3.005 21.2652 3.005 21V6L5.705 2.4C5.79815 2.2758 5.91894 2.175 6.05779 2.10557C6.19665 2.03614 6.34976 2 6.505 2ZM18.505 6L17.005 4H7.005L5.505 6H18.505ZM9.005 10H7.005V12C7.005 13.3261 7.53179 14.5979 8.46947 15.5355C9.40715 16.4732 10.6789 17 12.005 17C13.3311 17 14.6029 16.4732 15.5405 15.5355C16.4782 14.5979 17.005 13.3261 17.005 12V10H15.005V12C15.005 12.7956 14.6889 13.5587 14.1263 14.1213C13.5637 14.6839 12.8007 15 12.005 15C11.2094 15 10.4463 14.6839 9.88368 14.1213C9.32107 13.5587 9.005 12.7956 9.005 12V10Z" fill="#828282"/>
</svg>
