<svg width="14" height="16" viewBox="0 0 14 16" fill="none" xmlns="http://www.w3.org/2000/svg">
<path d="M2.72222 0H11.2778C11.3985 0 11.5176 0.028916 11.6256 0.0844582C11.7336 0.14 11.8276 0.220643 11.9 0.32L14 3.2V15.2C14 15.4122 13.9181 15.6157 13.7722 15.7657C13.6263 15.9157 13.4285 16 13.2222 16H0.777778C0.571498 16 0.373667 15.9157 0.227806 15.7657C0.0819442 15.6157 0 15.4122 0 15.2V3.2L2.1 0.32C2.17245 0.220643 2.26639 0.14 2.37439 0.0844582C2.48239 0.028916 2.60148 0 2.72222 0ZM12.0556 3.2L10.8889 1.6H3.11111L1.94444 3.2H12.0556ZM4.66667 6.4H3.11111V8C3.11111 9.06087 3.52083 10.0783 4.25014 10.8284C4.97945 11.5786 5.9686 12 7 12C8.0314 12 9.02055 11.5786 9.74986 10.8284C10.4792 10.0783 10.8889 9.06087 10.8889 8V6.4H9.33333V8C9.33333 8.63652 9.0875 9.24697 8.64992 9.69706C8.21233 10.1471 7.61884 10.4 7 10.4C6.38116 10.4 5.78767 10.1471 5.35008 9.69706C4.9125 9.24697 4.66667 8.63652 4.66667 8V6.4Z" fill="#828282"/>
</svg>
