<svg width="24" height="24" viewBox="0 0 24 24" fill="none" xmlns="http://www.w3.org/2000/svg">
<path d="M21 12C21 12.1989 20.9209 12.3897 20.7803 12.5303C20.6397 12.6709 20.4489 12.75 20.25 12.75H3.75C3.55108 12.75 3.36032 12.6709 3.21967 12.5303C3.07902 12.3897 3 12.1989 3 12C3 11.8011 3.07902 11.6103 3.21967 11.4697C3.36032 11.3291 3.55108 11.25 3.75 11.25H20.25C20.4489 11.25 20.6397 11.3291 20.7803 11.4697C20.9209 11.6103 21 11.8011 21 12ZM11.4656 9.53437C11.609 9.67297 11.8006 9.75045 12 9.75045C12.1994 9.75045 12.391 9.67297 12.5344 9.53437L15.5344 6.53437C15.6361 6.42593 15.7051 6.2909 15.7333 6.14491C15.7615 5.9989 15.7477 5.84791 15.6937 5.70938C15.6364 5.57288 15.5399 5.45641 15.4164 5.37467C15.293 5.29292 15.1481 5.24954 15 5.25H12.75V1.5C12.75 1.30108 12.6709 1.11032 12.5303 0.969667C12.3897 0.82902 12.1989 0.75 12 0.75C11.8011 0.75 11.6103 0.82902 11.4697 0.969667C11.3291 1.11032 11.25 1.30108 11.25 1.5V5.25H9C8.85195 5.24954 8.70705 5.29292 8.5836 5.37467C8.46015 5.45641 8.36363 5.57288 8.30625 5.70938C8.25225 5.84791 8.23852 5.9989 8.26672 6.14491C8.29492 6.2909 8.36385 6.42593 8.46563 6.53437L11.4656 9.53437ZM12.5344 14.4656C12.3922 14.3248 12.2001 14.2458 12 14.2458C11.7999 14.2458 11.6078 14.3248 11.4656 14.4656L8.46563 17.4656C8.36385 17.5741 8.29492 17.7091 8.26672 17.8551C8.23852 18.0011 8.25225 18.1521 8.30625 18.2906C8.36363 18.4271 8.46015 18.5436 8.5836 18.6253C8.70705 18.7071 8.85195 18.7505 9 18.75H11.25V22.5C11.25 22.6989 11.3291 22.8897 11.4697 23.0303C11.6103 23.1709 11.8011 23.25 12 23.25C12.1989 23.25 12.3897 23.1709 12.5303 23.0303C12.6709 22.8897 12.75 22.6989 12.75 22.5V18.75H15C15.1481 18.7505 15.293 18.7071 15.4164 18.6253C15.5399 18.5436 15.6364 18.4271 15.6937 18.2906C15.7477 18.1521 15.7615 18.0011 15.7333 17.8551C15.7051 17.7091 15.6361 17.5741 15.5344 17.4656L12.5344 14.4656Z" fill="black"/>
</svg>
