<svg width="20" height="20" viewBox="0 0 20 20" fill="none" xmlns="http://www.w3.org/2000/svg">
<g clip-path="url(#clip0_47_268)">
<path d="M10 19.1665C1.765 19.1665 0 17.5486 0 9.99986C0 7.92519 0.133318 6.29851 0.497629 5.03027C1.43044 5.96547 2.60755 7.09005 3.88606 8.09173C5.69935 9.51244 7.89543 10.8332 10 10.8332C12.1046 10.8332 14.3007 9.51244 16.1139 8.09173C17.3924 7.09005 18.5696 5.96547 19.5023 5.03028C19.8667 6.29851 20 7.92519 20 9.99986C20 17.5486 18.235 19.1665 10 19.1665Z" fill="#3F9CFB"/>
<path d="M18.7768 3.39418C17.8004 4.38934 16.5052 5.66853 15.0868 6.77984C13.3001 8.17969 11.4961 9.16659 10.0007 9.16659C8.50531 9.16659 6.70138 8.17969 4.91467 6.77984C3.49623 5.66853 2.20108 4.38934 1.22461 3.39418C2.54814 1.39375 5.15373 0.833252 10.0007 0.833252C14.8477 0.833252 17.4533 1.39375 18.7768 3.39418Z" fill="#3F9CFB"/>
</g>
<defs>
<clipPath id="clip0_47_268">
<rect width="20" height="20" fill="white"/>
</clipPath>
</defs>
</svg>
