<svg width="16" height="16" viewBox="0 0 16 16" fill="none" xmlns="http://www.w3.org/2000/svg">
<path d="M10 11.6396L11 11.6397V11.6396H10ZM6.6582 13.1143L6.97442 14.0629L6.97443 14.0629L6.6582 13.1143ZM6 12.6396L5 12.6396L5 12.6397L6 12.6396ZM2.95989 4.95989L2.25278 5.66699L2.95989 4.95989ZM10.2929 7.70711L11 8.41421L10.2929 7.70711ZM13.0401 4.95989L13.7472 5.66699L13.0401 4.95989ZM13.0401 4.95989L12.333 4.25278L9.58579 7L10.2929 7.70711L11 8.41421L13.7472 5.66699L13.0401 4.95989ZM10 8.41421H9V11.6396H10H11V8.41421H10ZM10 11.6396L9 11.6396C9.00001 11.4254 9.13689 11.2339 9.34198 11.1656L9.6582 12.1143L9.97443 13.0629C10.5878 12.8585 11 12.2843 11 11.6397L10 11.6396ZM9.6582 12.1143L9.34198 11.1656L6.34198 12.1656L6.6582 13.1143L6.97443 14.0629L9.97443 13.0629L9.6582 12.1143ZM6.6582 13.1143L6.34198 12.1656C6.66638 12.0574 6.99998 12.299 7 12.6396L6 12.6396L5 12.6397C5.00005 13.6628 6.00251 14.3869 6.97442 14.0629L6.6582 13.1143ZM6 12.6396H7V8.41421H6H5V12.6396H6ZM5.70711 7.70711L6.41421 7L3.66699 4.25278L2.95989 4.95989L2.25278 5.66699L5 8.41421L5.70711 7.70711ZM2.66699 4.25278H3.66699V3.66699H2.66699H1.66699V4.25278H2.66699ZM3.66699 2.66699V3.66699H12.333V2.66699V1.66699H3.66699V2.66699ZM13.333 3.66699H12.333V4.25278H13.333H14.333V3.66699H13.333ZM12.333 2.66699V3.66699H12.333H13.333H14.333C14.333 2.56242 13.4376 1.66699 12.333 1.66699V2.66699ZM2.66699 3.66699H3.66699H3.66699V2.66699V1.66699C2.56242 1.66699 1.66699 2.56242 1.66699 3.66699H2.66699ZM2.95989 4.95989L3.66699 4.25278L3.66699 4.25278H2.66699H1.66699C1.66699 4.78321 1.87771 5.29192 2.25278 5.66699L2.95989 4.95989ZM6 8.41421H7C7 7.88378 6.78929 7.37507 6.41421 7L5.70711 7.70711L5 8.41421L5 8.41421H6ZM10.2929 7.70711L9.58579 7C9.21071 7.37507 9 7.88378 9 8.41421H10H11L11 8.41421L10.2929 7.70711ZM13.0401 4.95989L13.7472 5.66699C14.1223 5.29192 14.333 4.78321 14.333 4.25278H13.333H12.333L12.333 4.25278L13.0401 4.95989Z" fill="#1A99FF"/>
</svg>
