<svg width="23" height="23" viewBox="0 0 23 23" fill="none" xmlns="http://www.w3.org/2000/svg">
<path fill-rule="evenodd" clip-rule="evenodd" d="M11.5 0C8.3766 0 7.9856 0.0137999 6.75855 0.0689999C5.53495 0.12535 4.6989 0.3197 3.9675 0.60375C3.19984 0.892188 2.50439 1.3447 1.9297 1.9297C1.3447 2.50439 0.892188 3.19984 0.60375 3.9675C0.3197 4.6989 0.12535 5.53495 0.0689999 6.75855C0.0126499 7.9856 0 8.3766 0 11.5C0 14.6234 0.0126499 15.0144 0.0689999 16.2414C0.12535 17.465 0.3197 18.3011 0.60375 19.0325C0.892188 19.8002 1.3447 20.4956 1.9297 21.0703C2.50439 21.6553 3.19984 22.1078 3.9675 22.3962C4.6989 22.6803 5.53495 22.8747 6.75855 22.931C7.9856 22.9862 8.3766 23 11.5 23C14.6234 23 15.0144 22.9862 16.2414 22.931C17.465 22.8747 18.3011 22.6803 19.0325 22.3962C19.8002 22.1078 20.4956 21.6553 21.0703 21.0703C21.6553 20.4956 22.1078 19.8002 22.3962 19.0325C22.6803 18.3011 22.8747 17.465 22.931 16.2414C22.9862 15.0144 23 14.6234 23 11.5C23 8.3766 22.9862 7.9856 22.931 6.75855C22.8747 5.53495 22.6803 4.6989 22.3962 3.9675C22.1078 3.19984 21.6553 2.50439 21.0703 1.9297C20.4956 1.3447 19.8002 0.892188 19.0325 0.60375C18.3011 0.3197 17.465 0.12535 16.2414 0.0689999C15.0144 0.0137999 14.6234 0 11.5 0ZM11.5 2.0723C14.5705 2.0723 14.9339 2.0838 16.146 2.139C17.2684 2.19075 17.8768 2.37705 18.2827 2.5346C18.8186 2.7439 19.2027 2.99345 19.6052 3.3948C20.0077 3.7973 20.2561 4.1814 20.4654 4.7173C20.6218 5.12325 20.8104 5.7316 20.861 6.85285C20.9162 8.0661 20.9277 8.42835 20.9277 11.5C20.9277 14.5705 20.9162 14.9339 20.861 16.146C20.8092 17.2684 20.6218 17.8768 20.4654 18.2827C20.281 18.7822 19.9871 19.2341 19.6052 19.6052C19.2027 20.0077 18.8186 20.2561 18.2827 20.4654C17.8768 20.6218 17.2684 20.8104 16.1472 20.861C14.9351 20.9162 14.5716 20.9277 11.5 20.9277C8.4295 20.9277 8.06495 20.9162 6.854 20.861C5.7316 20.8092 5.12325 20.6218 4.7173 20.4654C4.21776 20.281 3.76586 19.9871 3.3948 19.6052C3.0129 19.2341 2.71897 18.7822 2.5346 18.2827C2.37705 17.8768 2.1896 17.2684 2.139 16.1472C2.0838 14.9339 2.0723 14.5716 2.0723 11.5C2.0723 8.4295 2.0838 8.0661 2.139 6.854C2.19075 5.7316 2.37705 5.12325 2.5346 4.7173C2.7439 4.1814 2.99345 3.7973 3.3948 3.3948C3.7973 2.9923 4.1814 2.7439 4.7173 2.5346C5.12325 2.37705 5.7316 2.1896 6.85285 2.139C8.0661 2.0838 8.42835 2.0723 11.5 2.0723ZM11.5 15.3329C10.4834 15.3329 9.50851 14.9291 8.7897 14.2103C8.07088 13.4915 7.66705 12.5166 7.66705 11.5C7.66705 10.4834 8.07088 9.50851 8.7897 8.7897C9.50851 8.07088 10.4834 7.66705 11.5 7.66705C12.5166 7.66705 13.4915 8.07088 14.2103 8.7897C14.9291 9.50851 15.3329 10.4834 15.3329 11.5C15.3329 12.5166 14.9291 13.4915 14.2103 14.2103C13.4915 14.9291 12.5166 15.3329 11.5 15.3329ZM11.5 5.59475C10.7245 5.59475 9.95662 5.74749 9.24016 6.04426C8.5237 6.34103 7.87271 6.776 7.32436 7.32436C6.776 7.87271 6.34103 8.5237 6.04426 9.24016C5.74749 9.95662 5.59475 10.7245 5.59475 11.5C5.59475 12.2755 5.74749 13.0434 6.04426 13.7598C6.34103 14.4763 6.776 15.1273 7.32436 15.6756C7.87271 16.224 8.5237 16.659 9.24016 16.9557C9.95662 17.2525 10.7245 17.4052 11.5 17.4052C13.0662 17.4052 14.5682 16.7831 15.6756 15.6756C16.7831 14.5682 17.4052 13.0662 17.4052 11.5C17.4052 9.93383 16.7831 8.43181 15.6756 7.32436C14.5682 6.21691 13.0662 5.59475 11.5 5.59475ZM19.0187 5.3613C19.0187 5.54252 18.983 5.72197 18.9137 5.8894C18.8443 6.05683 18.7427 6.20896 18.6145 6.33711C18.4864 6.46525 18.3342 6.5669 18.1668 6.63625C17.9994 6.70561 17.8199 6.7413 17.6387 6.7413C17.4575 6.7413 17.278 6.70561 17.1106 6.63625C16.9432 6.5669 16.791 6.46525 16.6629 6.33711C16.5347 6.20896 16.4331 6.05683 16.3637 5.8894C16.2944 5.72197 16.2587 5.54252 16.2587 5.3613C16.2587 4.9953 16.4041 4.64429 16.6629 4.38549C16.9217 4.12669 17.2727 3.9813 17.6387 3.9813C18.0047 3.9813 18.3557 4.12669 18.6145 4.38549C18.8733 4.64429 19.0187 4.9953 19.0187 5.3613Z" fill="white"/>
</svg>
