<svg width="20" height="21" viewBox="0 0 20 21" fill="none" xmlns="http://www.w3.org/2000/svg">
<g clip-path="url(#clip0_0_935)">
<path d="M4.9524 6.93721H0.881771C1.89219 4.35804 3.96719 2.30804 6.56302 1.33117C5.72344 2.77888 5.20885 4.78117 4.9524 6.93721ZM19.1172 6.93721C18.1068 4.35617 16.0318 2.30617 13.4359 1.33117C14.2776 2.77888 14.7901 4.78117 15.0461 6.93721H19.1172ZM0.881771 14.0666C1.89406 16.6437 3.96906 18.6914 6.56302 19.6687C5.72344 18.2208 5.21094 16.2228 4.9526 14.0666H0.881771ZM13.4359 19.6687C16.0318 18.6937 18.1047 16.6458 19.1172 14.0666H15.0464C14.7901 16.2228 14.2753 18.2208 13.4359 19.6687ZM4.75052 10.4999C4.75052 9.87054 4.76927 9.23534 4.80698 8.60388H0.396354C0.273229 9.21659 0.210938 9.852 0.210938 10.4999C0.210938 11.1499 0.275729 11.7853 0.396563 12.3999H4.80698C4.76927 11.7666 4.75052 11.131 4.75052 10.4999ZM19.6026 8.60388H15.1922C15.2297 9.23513 15.2486 9.87054 15.2486 10.4999C15.2486 11.131 15.2297 11.7666 15.1922 12.3999H19.6026C19.7234 11.7853 19.7882 11.1499 19.7882 10.4999C19.788 9.852 19.7255 9.21659 19.6026 8.60388ZM10.0026 0.708252C8.16302 0.708252 7.07156 3.5395 6.63823 6.93721H13.363C12.9295 3.5395 11.838 0.708252 10.0026 0.708252ZM10.0026 20.2916C11.8382 20.2916 12.9276 17.4624 13.363 14.0666H6.63802C7.07135 17.4624 8.1651 20.2916 10.0026 20.2916ZM6.41719 10.4999C6.41719 11.131 6.43823 11.7687 6.4776 12.3999H13.5216C13.5609 11.7687 13.582 11.131 13.582 10.4999C13.582 9.87054 13.5609 9.23325 13.5216 8.60388H6.4776C6.43802 9.23325 6.41719 9.87054 6.41719 10.4999Z" fill="#3F9CFB"/>
</g>
<defs>
<clipPath id="clip0_0_935">
<rect width="20" height="20" fill="white" transform="translate(0 0.5)"/>
</clipPath>
</defs>
</svg>
