<svg width="24" height="71" viewBox="0 0 24 71" fill="none" xmlns="http://www.w3.org/2000/svg">
<path d="M11.6297 30.1413C12.1403 30.1387 12.6311 30.3391 12.994 30.6984C13.3569 31.0577 13.5622 31.5464 13.5647 32.0571C13.5673 32.5677 13.3669 33.0585 13.0076 33.4214C12.6483 33.7843 12.1596 33.9896 11.6489 33.9921C11.1383 33.9947 10.6475 33.7943 10.2846 33.435C9.92175 33.0757 9.71644 32.587 9.71389 32.0764C9.71133 31.5657 9.91174 31.0749 10.271 30.712C10.6303 30.3492 11.119 30.1438 11.6297 30.1413ZM11.6008 24.365C12.1114 24.3625 12.6022 24.5629 12.9651 24.9221C13.328 25.2814 13.5333 25.7702 13.5358 26.2808C13.5384 26.7915 13.338 27.2822 12.9787 27.6451C12.6194 28.008 12.1307 28.2133 11.62 28.2159C11.1094 28.2184 10.6186 28.018 10.2557 27.6587C9.89285 27.2995 9.68754 26.8107 9.68499 26.3001C9.68244 25.7894 9.88284 25.2987 10.2421 24.9358C10.6014 24.5729 11.0901 24.3676 11.6008 24.365ZM11.5719 18.5887C12.0825 18.5862 12.5733 18.7866 12.9362 19.1459C13.2991 19.5051 13.5044 19.9939 13.5069 20.5045C13.5095 21.0152 13.3091 21.5059 12.9498 21.8688C12.5905 22.2317 12.1018 22.437 11.5912 22.4396C11.0805 22.4421 10.5897 22.2417 10.2268 21.8825C9.86396 21.5232 9.65865 21.0344 9.65609 20.5238C9.65354 20.0131 9.85395 19.5224 10.2132 19.1595C10.5725 18.7966 11.0612 18.5913 11.5719 18.5887Z" fill="black"/>
<g clip-path="url(#clip0_330_523)">
<path d="M12 12.1875C14.4162 12.1875 16.375 10.0888 16.375 7.5C16.375 4.91117 14.4162 2.8125 12 2.8125C9.58375 2.8125 7.625 4.91117 7.625 7.5C7.625 10.0888 9.58375 12.1875 12 12.1875Z" fill="white"/>
<path d="M12 14.0625C10.7886 14.0625 9.60439 13.6776 8.59713 12.9565C7.58988 12.2354 6.80483 11.2105 6.34124 10.0114C5.87765 8.81222 5.75636 7.49272 5.99269 6.21972C6.22903 4.94672 6.81238 3.7774 7.66897 2.85961C8.52557 1.94183 9.61694 1.31682 10.8051 1.0636C11.9932 0.810384 13.2247 0.940343 14.3439 1.43704C15.4631 1.93374 16.4197 2.77488 17.0928 3.85407C17.7658 4.93327 18.125 6.20206 18.125 7.5C18.1231 9.23988 17.4772 10.9079 16.329 12.1382C15.1807 13.3685 13.6239 14.0605 12 14.0625ZM12 1.875C10.9617 1.875 9.94662 2.2049 9.08326 2.82299C8.2199 3.44107 7.547 4.31957 7.14964 5.34741C6.75228 6.37524 6.64831 7.50624 6.85088 8.59739C7.05345 9.68853 7.55347 10.6908 8.28769 11.4775C9.02192 12.2641 9.95738 12.7999 10.9758 13.0169C11.9942 13.234 13.0498 13.1226 14.0091 12.6968C14.9684 12.2711 15.7883 11.5501 16.3652 10.6251C16.9421 9.70006 17.25 8.61252 17.25 7.5C17.2484 6.00869 16.6947 4.57896 15.7105 3.52445C14.7263 2.46993 13.3919 1.87674 12 1.875Z" fill="black"/>
</g>
<path d="M11.6297 48.746C12.1403 48.7435 12.6311 48.9439 12.994 49.3032C13.3569 49.6624 13.5622 50.1512 13.5647 50.6618C13.5673 51.1725 13.3669 51.6632 13.0076 52.0261C12.6483 52.389 12.1596 52.5943 11.6489 52.5969C11.1383 52.5994 10.6475 52.399 10.2846 52.0397C9.92175 51.6805 9.71644 51.1917 9.71389 50.6811C9.71133 50.1704 9.91174 49.6797 10.271 49.3168C10.6303 48.9539 11.119 48.7486 11.6297 48.746ZM11.6008 42.9697C12.1114 42.9672 12.6022 43.1676 12.9651 43.5269C13.328 43.8862 13.5333 44.3749 13.5358 44.8855C13.5384 45.3962 13.338 45.887 12.9787 46.2498C12.6194 46.6127 12.1307 46.818 11.62 46.8206C11.1094 46.8232 10.6186 46.6227 10.2557 46.2635C9.89285 45.9042 9.68754 45.4155 9.68499 44.9048C9.68244 44.3942 9.88284 43.9034 10.2421 43.5405C10.6014 43.1776 11.0901 42.9723 11.6008 42.9697ZM11.5719 37.1935C12.0825 37.1909 12.5733 37.3913 12.9362 37.7506C13.2991 38.1099 13.5044 38.5986 13.5069 39.1093C13.5095 39.6199 13.3091 40.1107 12.9498 40.4736C12.5905 40.8365 12.1018 41.0418 11.5912 41.0443C11.0805 41.0469 10.5897 40.8465 10.2268 40.4872C9.86396 40.1279 9.65865 39.6392 9.65609 39.1285C9.65354 38.6179 9.85395 38.1271 10.2132 37.7642C10.5725 37.4013 11.0612 37.196 11.5719 37.1935Z" fill="black"/>
<g clip-path="url(#clip1_330_523)">
<path d="M12 68.375C14.4162 68.375 16.375 66.4162 16.375 64C16.375 61.5838 14.4162 59.625 12 59.625C9.58375 59.625 7.625 61.5838 7.625 64C7.625 66.4162 9.58375 68.375 12 68.375Z" fill="black"/>
<path d="M12 70.125C10.7886 70.125 9.60439 69.7658 8.59713 69.0928C7.58988 68.4197 6.80483 67.4631 6.34124 66.3439C5.87765 65.2247 5.75636 63.9932 5.99269 62.8051C6.22903 61.6169 6.81238 60.5256 7.66897 59.669C8.52557 58.8124 9.61694 58.229 10.8051 57.9927C11.9932 57.7564 13.2247 57.8777 14.3439 58.3412C15.4631 58.8048 16.4197 59.5899 17.0928 60.5971C17.7658 61.6044 18.125 62.7886 18.125 64C18.1231 65.6239 17.4772 67.1807 16.329 68.329C15.1807 69.4772 13.6239 70.1231 12 70.125ZM12 58.75C10.9617 58.75 9.94662 59.0579 9.08326 59.6348C8.2199 60.2117 7.547 61.0316 7.14964 61.9909C6.75228 62.9502 6.64831 64.0058 6.85088 65.0242C7.05345 66.0426 7.55347 66.9781 8.28769 67.7123C9.02192 68.4465 9.95738 68.9466 10.9758 69.1491C11.9942 69.3517 13.0498 69.2477 14.0091 68.8504C14.9684 68.453 15.7883 67.7801 16.3652 66.9167C16.9421 66.0534 17.25 65.0384 17.25 64C17.2484 62.6081 16.6947 61.2737 15.7105 60.2895C14.7263 59.3053 13.3919 58.7516 12 58.75Z" fill="black"/>
</g>
<defs>
<clipPath id="clip0_330_523">
<rect width="14" height="15" fill="white" transform="translate(5)"/>
</clipPath>
<clipPath id="clip1_330_523">
<rect width="14" height="14" fill="white" transform="translate(5 57)"/>
</clipPath>
</defs>
</svg>
