<svg width="90" height="166" viewBox="0 0 90 166" fill="none" xmlns="http://www.w3.org/2000/svg">
<path d="M9.00034 18.5C53.5001 60 -0.592312 76.1743 7.50005 101.5C22.4871 148.403 83.5 72 70 153.5" stroke="black" stroke-linecap="round" stroke-dasharray="2 2"/>
<rect width="26" height="26" fill="white"/>
<path d="M13.0001 12.4584C12.2818 12.4584 11.5929 12.1731 11.085 11.6652C10.5771 11.1573 10.2917 10.4684 10.2917 9.75008C10.2917 9.03179 10.5771 8.34291 11.085 7.835C11.5929 7.32709 12.2818 7.04175 13.0001 7.04175C13.7184 7.04175 14.4073 7.32709 14.9152 7.835C15.4231 8.34291 15.7084 9.03179 15.7084 9.75008C15.7084 10.1057 15.6384 10.4579 15.5023 10.7865C15.3661 11.1151 15.1667 11.4137 14.9152 11.6652C14.6637 11.9167 14.3651 12.1161 14.0365 12.2523C13.7079 12.3884 13.3557 12.4584 13.0001 12.4584ZM13.0001 2.16675C10.9889 2.16675 9.06001 2.9657 7.63786 4.38785C6.2157 5.81001 5.41675 7.73886 5.41675 9.75008C5.41675 15.4376 13.0001 23.8334 13.0001 23.8334C13.0001 23.8334 20.5834 15.4376 20.5834 9.75008C20.5834 7.73886 19.7845 5.81001 18.3623 4.38785C16.9402 2.9657 15.0113 2.16675 13.0001 2.16675Z" fill="black"/>
<rect width="30" height="30" transform="translate(60 136)" fill="white"/>
<path d="M75 150.375C74.1712 150.375 73.3763 150.046 72.7903 149.46C72.2042 148.874 71.875 148.079 71.875 147.25C71.875 146.421 72.2042 145.626 72.7903 145.04C73.3763 144.454 74.1712 144.125 75 144.125C75.8288 144.125 76.6237 144.454 77.2097 145.04C77.7958 145.626 78.125 146.421 78.125 147.25C78.125 147.66 78.0442 148.067 77.8871 148.446C77.7301 148.825 77.4999 149.17 77.2097 149.46C76.9195 149.75 76.575 149.98 76.1959 150.137C75.8167 150.294 75.4104 150.375 75 150.375ZM75 138.5C72.6794 138.5 70.4538 139.422 68.8128 141.063C67.1719 142.704 66.25 144.929 66.25 147.25C66.25 153.812 75 163.5 75 163.5C75 163.5 83.75 153.812 83.75 147.25C83.75 144.929 82.8281 142.704 81.1872 141.063C79.5462 139.422 77.3206 138.5 75 138.5Z" fill="black"/>
</svg>
