<svg width="25" height="25" viewBox="0 0 25 25" fill="none" xmlns="http://www.w3.org/2000/svg">
<path d="M18.75 1.5625C20.4688 1.5625 21.875 2.96094 21.875 4.6875V18.75C21.875 20.4688 20.4766 21.875 18.75 21.875H14.8438C14.6365 21.875 14.4378 21.7927 14.2913 21.6462C14.1448 21.4997 14.0625 21.301 14.0625 21.0938C14.0625 20.8865 14.1448 20.6878 14.2913 20.5413C14.4378 20.3948 14.6365 20.3125 14.8438 20.3125H18.75C19.1644 20.3125 19.5618 20.1479 19.8549 19.8549C20.1479 19.5618 20.3125 19.1644 20.3125 18.75V4.6875C20.3125 4.2731 20.1479 3.87567 19.8549 3.58265C19.5618 3.28962 19.1644 3.125 18.75 3.125H14.8438C14.6365 3.125 14.4378 3.04269 14.2913 2.89618C14.1448 2.74966 14.0625 2.55095 14.0625 2.34375C14.0625 2.13655 14.1448 1.93784 14.2913 1.79132C14.4378 1.64481 14.6365 1.5625 14.8438 1.5625H18.75Z" fill="#828282"/>
<path d="M6.48435 6.48432C6.6317 6.34201 6.82905 6.26326 7.03389 6.26504C7.23873 6.26682 7.43468 6.34899 7.57953 6.49384C7.72438 6.63869 7.80654 6.83463 7.80832 7.03948C7.8101 7.24432 7.73135 7.44166 7.58904 7.58901L4.22967 10.9484H14.839C15.0462 10.9484 15.245 11.0307 15.3915 11.1772C15.538 11.3237 15.6203 11.5224 15.6203 11.7296C15.6203 11.9368 15.538 12.1355 15.3915 12.2821C15.245 12.4286 15.0462 12.5109 14.839 12.5109H4.22967L7.58904 15.8703C7.73135 16.0176 7.8101 16.2149 7.80832 16.4198C7.80654 16.6246 7.72438 16.8206 7.57953 16.9654C7.43468 17.1103 7.23873 17.1924 7.03389 17.1942C6.82905 17.196 6.6317 17.1173 6.48435 16.9749L1.79685 12.2874C1.65039 12.1409 1.56812 11.9423 1.56812 11.7351C1.56812 11.5279 1.65039 11.3293 1.79685 11.1828L6.48435 6.49526V6.48432Z" fill="#828282"/>
</svg>
