<svg width="1097" height="222" viewBox="0 0 1097 222" fill="none" xmlns="http://www.w3.org/2000/svg">
<g clip-path="url(#clip0_88_19)">
<rect width="1097" height="222" fill="#1A99FF"/>
<path d="M-103.954 -21.2716L-120.792 34.3009C-120.918 34.8291 -121.407 35.2044 -121.952 35.2044H-131.02C-131.579 35.2044 -132.054 34.8291 -132.18 34.3009L-149.046 -21.2716C-149.227 -22.0222 -148.669 -22.745 -147.886 -22.745H-144.854C-144.407 -22.745 -144.057 -22.3975 -144.043 -21.9527C-143.624 -12.7369 -135.995 -5.41159 -126.633 -5.41159C-117.271 -5.41159 -109.641 -12.7508 -109.222 -21.9527C-109.208 -22.3975 -108.859 -22.745 -108.412 -22.745H-105.114C-104.345 -22.745 -103.773 -22.0222 -103.954 -21.2716Z" fill="white"/>
<path d="M-126.731 -11.2357C-121.799 -11.2357 -117.802 -15.2124 -117.802 -20.1179C-117.802 -25.0233 -121.799 -29 -126.731 -29C-131.662 -29 -135.659 -25.0233 -135.659 -20.1179C-135.659 -15.2124 -131.662 -11.2357 -126.731 -11.2357Z" fill="white"/>
<path d="M-150.848 -20.799L-137.504 35.7048C-137.35 36.233 -137.574 36.8029 -138.049 37.067L-145.902 41.5845C-146.377 41.8625 -146.992 41.7791 -147.369 41.376L-189.89 1.63575C-190.434 1.07974 -190.309 0.176237 -189.624 -0.212965L-186.997 -1.71417C-186.62 -1.93657 -186.131 -1.79757 -185.893 -1.43617C-180.905 6.33397 -170.606 8.89158 -162.502 4.23506C-154.398 -0.421465 -151.477 -10.5685 -155.739 -18.7557C-155.949 -19.1449 -155.823 -19.6175 -155.432 -19.8399L-152.567 -21.4801C-151.896 -21.8693 -151.044 -21.5218 -150.82 -20.7851L-150.848 -20.799Z" fill="white"/>
<path d="M-169.992 0.41254C-165.06 0.41254 -161.063 -3.56413 -161.063 -8.4696C-161.063 -13.3751 -165.06 -17.3517 -169.992 -17.3517C-174.923 -17.3517 -178.921 -13.3751 -178.921 -8.4696C-178.921 -3.56413 -174.923 0.41254 -169.992 0.41254Z" fill="white"/>
<path d="M-191.203 2.94235L-151.254 45.2402C-150.848 45.6156 -150.765 46.2272 -151.044 46.6998L-155.585 54.5116C-155.865 54.9842 -156.424 55.2205 -156.955 55.0537L-213.756 41.7791C-214.51 41.5706 -214.846 40.7227 -214.454 40.0416L-212.945 37.4284C-212.722 37.0531 -212.247 36.928 -211.855 37.1226C-203.625 41.376 -193.425 38.457 -188.744 30.395C-184.063 22.3329 -186.634 12.0886 -194.445 7.12627C-194.822 6.88997 -194.948 6.41737 -194.724 6.02817L-193.075 3.17865C-192.684 2.51145 -191.776 2.38635 -191.217 2.91455L-191.203 2.94235Z" fill="white"/>
<path d="M-201.585 32.0213C-196.654 32.0213 -192.656 28.0446 -192.656 23.1391C-192.656 18.2337 -196.654 14.257 -201.585 14.257C-206.516 14.257 -210.514 18.2337 -210.514 23.1391C-210.514 28.0446 -206.516 32.0213 -201.585 32.0213Z" fill="white"/>
<path d="M-214.231 43.5722L-158.366 60.3218C-157.835 60.4469 -157.458 60.9334 -157.458 61.4755V70.4967C-157.458 71.0527 -157.835 71.5253 -158.366 71.6504L-214.231 88.3999C-214.985 88.5807 -215.712 88.0247 -215.712 87.2462V84.2299C-215.712 83.7851 -215.363 83.4376 -214.916 83.4237C-205.651 83.0067 -198.287 75.4173 -198.287 66.1042C-198.287 56.7912 -205.665 49.2018 -214.916 48.7848C-215.363 48.7709 -215.712 48.4234 -215.712 47.9786V44.6982C-215.712 43.9336 -214.985 43.3637 -214.231 43.5444V43.5722Z" fill="white"/>
<path d="M-213.071 75.1115C-208.14 75.1115 -204.142 71.1348 -204.142 66.2294C-204.142 61.3239 -208.14 57.3472 -213.071 57.3472C-218.002 57.3472 -222 61.3239 -222 66.2294C-222 71.1348 -218.002 75.1115 -213.071 75.1115Z" fill="white"/>
<path d="M-213.756 90.207L-156.955 76.9324C-156.424 76.7795 -155.851 77.0019 -155.585 77.4745L-151.044 85.2863C-150.765 85.7589 -150.848 86.3705 -151.254 86.7458L-191.203 129.044C-191.762 129.586 -192.67 129.461 -193.061 128.78L-194.571 126.166C-194.794 125.791 -194.654 125.305 -194.291 125.068C-186.48 120.106 -183.909 109.862 -188.59 101.8C-193.271 93.7376 -203.472 90.8325 -211.702 95.072C-212.093 95.2805 -212.568 95.1554 -212.792 94.7662L-214.44 91.9167C-214.832 91.2495 -214.482 90.4016 -213.742 90.1792L-213.756 90.207Z" fill="white"/>
<path d="M-201.362 118.146C-196.43 118.146 -192.433 114.169 -192.433 109.264C-192.433 104.358 -196.43 100.382 -201.362 100.382C-206.293 100.382 -210.29 104.358 -210.29 109.264C-210.29 114.169 -206.293 118.146 -201.362 118.146Z" fill="white"/>
<path d="M-189.89 130.364L-147.369 90.624C-146.992 90.2209 -146.377 90.1375 -145.902 90.4155L-138.049 94.933C-137.574 95.211 -137.336 95.767 -137.504 96.2952L-150.848 152.799C-151.058 153.55 -151.91 153.883 -152.595 153.494L-155.222 151.993C-155.599 151.77 -155.725 151.298 -155.529 150.909C-151.254 142.721 -154.188 132.574 -162.292 127.918C-170.397 123.261 -180.695 125.819 -185.684 133.589C-185.921 133.964 -186.396 134.089 -186.787 133.867L-189.652 132.227C-190.323 131.838 -190.448 130.934 -189.917 130.378L-189.89 130.364Z" fill="white"/>
<path d="M-169.586 149.574C-164.655 149.574 -160.658 145.597 -160.658 140.692C-160.658 135.787 -164.655 131.81 -169.586 131.81C-174.518 131.81 -178.515 135.787 -178.515 140.692C-178.515 145.597 -174.518 149.574 -169.586 149.574Z" fill="white"/>
<path d="M-149.046 153.272L-132.208 97.6991C-132.082 97.1709 -131.593 96.7956 -131.048 96.7956H-121.98C-121.421 96.7956 -120.946 97.1709 -120.82 97.6991L-103.982 153.272C-103.8 154.022 -104.359 154.745 -105.142 154.745H-108.174C-108.621 154.745 -108.971 154.397 -108.985 153.953C-109.404 144.737 -117.033 137.412 -126.395 137.412C-135.757 137.412 -143.387 144.751 -143.806 153.953C-143.82 154.397 -144.169 154.745 -144.616 154.745H-147.914C-148.682 154.745 -149.255 154.022 -149.074 153.272H-149.046Z" fill="white"/>
<path d="M-126.269 161C-121.338 161 -117.341 157.023 -117.341 152.118C-117.341 147.212 -121.338 143.236 -126.269 143.236C-131.201 143.236 -135.198 147.212 -135.198 152.118C-135.198 157.023 -131.201 161 -126.269 161Z" fill="white"/>
<path d="M-102.166 152.799L-115.51 96.2952C-115.664 95.767 -115.44 95.1971 -114.965 94.933L-107.112 90.4155C-106.637 90.1375 -106.022 90.2209 -105.645 90.624L-63.1245 130.364C-62.5795 130.92 -62.7052 131.824 -63.3899 132.213L-66.0169 133.714C-66.3942 133.937 -66.8833 133.798 -67.1208 133.436C-72.1092 125.666 -82.4075 123.108 -90.512 127.765C-98.6164 132.421 -101.537 142.569 -97.275 150.756C-97.0654 151.145 -97.1912 151.617 -97.5824 151.84L-100.447 153.48C-101.118 153.869 -101.97 153.522 -102.194 152.785L-102.166 152.799Z" fill="white"/>
<path d="M-83.0083 149.352C-78.0771 149.352 -74.0795 145.375 -74.0795 140.47C-74.0795 135.564 -78.0771 131.587 -83.0083 131.587C-87.9396 131.587 -91.9372 135.564 -91.9372 140.47C-91.9372 145.375 -87.9396 149.352 -83.0083 149.352Z" fill="white"/>
<path d="M-61.797 129.058L-101.746 86.7598C-102.152 86.3845 -102.235 85.7729 -101.956 85.3003L-97.4147 77.4884C-97.1353 77.0158 -96.5763 76.7795 -96.0453 76.9463L-39.2442 90.2209C-38.4896 90.4294 -38.1543 91.2773 -38.5455 91.9584L-40.0546 94.5716C-40.2782 94.9469 -40.7533 95.072 -41.1446 94.8774C-49.3748 90.624 -59.5752 93.543 -64.2563 101.605C-68.9373 109.667 -66.3662 119.911 -58.5552 124.874C-58.1779 125.11 -58.0522 125.583 -58.2757 125.972L-59.9246 128.821C-60.3158 129.489 -61.2241 129.614 -61.783 129.085L-61.797 129.058Z" fill="white"/>
<path d="M-51.4149 117.743C-46.4836 117.743 -42.486 113.766 -42.486 108.861C-42.486 103.955 -46.4836 99.9787 -51.4149 99.9787C-56.3462 99.9787 -60.3438 103.955 -60.3438 108.861C-60.3438 113.766 -56.3462 117.743 -51.4149 117.743Z" fill="white"/>
<path d="M-38.7691 88.4278L-94.6341 71.6782C-95.165 71.5531 -95.5423 71.0666 -95.5423 70.5245V61.5033C-95.5423 60.9473 -95.165 60.4747 -94.6341 60.3496L-38.7691 43.6C-38.0145 43.4193 -37.2879 43.9753 -37.2879 44.7537V47.7701C-37.2879 48.2149 -37.6373 48.5624 -38.0844 48.5763C-47.3487 48.9933 -54.7126 56.5827 -54.7126 65.8957C-54.7126 75.2088 -47.3347 82.7982 -38.0844 83.2152C-37.6373 83.2291 -37.2879 83.5766 -37.2879 84.0214V87.3018C-37.2879 88.0663 -38.0145 88.6363 -38.7691 88.4556V88.4278Z" fill="white"/>
<path d="M-39.9289 74.6528C-34.9976 74.6528 -31 70.6761 -31 65.7706C-31 60.8652 -34.9976 56.8885 -39.9289 56.8885C-44.8602 56.8885 -48.8578 60.8652 -48.8578 65.7706C-48.8578 70.6761 -44.8602 74.6528 -39.9289 74.6528Z" fill="white"/>
<path d="M-39.2442 41.7791L-96.0453 55.0537C-96.5763 55.2066 -97.1492 54.9842 -97.4147 54.5116L-101.956 46.6998C-102.235 46.2271 -102.152 45.6156 -101.746 45.2402L-61.797 2.94235C-61.2381 2.40025 -60.3298 2.52535 -59.9385 3.20645L-58.4294 5.81966C-58.2059 6.19496 -58.3456 6.68147 -58.7089 6.91777C-66.5199 11.8801 -69.091 22.1244 -64.41 30.1865C-59.7289 38.2485 -49.5285 41.1536 -41.2982 36.9141C-40.907 36.7056 -40.4319 36.8307 -40.2083 37.2199L-38.5595 40.0694C-38.1683 40.7366 -38.5176 41.5845 -39.2582 41.8069L-39.2442 41.7791Z" fill="white"/>
<path d="M-51.6385 31.6182C-46.7072 31.6182 -42.7096 27.6415 -42.7096 22.736C-42.7096 17.8306 -46.7072 13.8539 -51.6385 13.8539C-56.5697 13.8539 -60.5674 17.8306 -60.5674 22.736C-60.5674 27.6415 -56.5697 31.6182 -51.6385 31.6182Z" fill="white"/>
<path d="M-63.1105 1.63574L-105.631 41.376C-106.008 41.7791 -106.623 41.8625 -107.098 41.5845L-114.951 37.067C-115.426 36.789 -115.664 36.233 -115.496 35.7048L-102.152 -20.799C-101.942 -21.5496 -101.09 -21.8832 -100.405 -21.494L-97.778 -19.9928C-97.4008 -19.7704 -97.275 -19.2978 -97.4706 -18.9086C-101.746 -10.7214 -98.812 -0.574369 -90.7076 4.08215C-82.6031 8.73867 -72.3048 6.18106 -67.3164 -1.58907C-67.0789 -1.96437 -66.6038 -2.08947 -66.2125 -1.86707L-63.348 -0.226866C-62.6773 0.162336 -62.5515 1.06584 -63.0825 1.62184L-63.1105 1.63574Z" fill="white"/>
<path d="M-83.4136 0.190138C-78.4823 0.190138 -74.4847 -3.78653 -74.4847 -8.692C-74.4847 -13.5975 -78.4823 -17.5741 -83.4136 -17.5741C-88.3448 -17.5741 -92.3425 -13.5975 -92.3425 -8.692C-92.3425 -3.78653 -88.3448 0.190138 -83.4136 0.190138Z" fill="white"/>
<path d="M39.44 112V82.46L6.53999 19.6H24.46L46.72 68.04H47.42L69.68 19.6H87.6L54.7 82.32V112H39.44Z" fill="white"/>
<path d="M118.412 113.82C111.412 113.82 105.205 112.327 99.792 109.34C94.3787 106.353 90.132 102.013 87.052 96.32C84.0654 90.6267 82.572 83.6267 82.572 75.32C82.572 66.8267 84.1587 59.78 87.332 54.18C90.5054 48.58 94.752 44.38 100.072 41.58C105.485 38.78 111.552 37.38 118.272 37.38C125.179 37.38 131.339 38.8267 136.752 41.72C142.165 44.6133 146.412 48.9067 149.492 54.6C152.665 60.2933 154.252 67.3867 154.252 75.88C154.252 84.28 152.665 91.3267 149.492 97.02C146.412 102.62 142.165 106.82 136.752 109.62C131.339 112.42 125.225 113.82 118.412 113.82ZM118.972 101.78C123.172 101.78 126.765 100.8 129.752 98.84C132.739 96.88 135.025 93.9867 136.612 90.16C138.199 86.3333 138.992 81.76 138.992 76.44C138.992 70.9333 138.152 66.22 136.472 62.3C134.792 58.2867 132.365 55.2067 129.192 53.06C126.112 50.9133 122.332 49.84 117.852 49.84C113.839 49.84 110.292 50.82 107.212 52.78C104.225 54.6467 101.939 57.4933 100.352 61.32C98.7654 65.0533 97.972 69.6267 97.972 75.04C97.972 83.5333 99.8387 90.1133 103.572 94.78C107.305 99.4467 112.439 101.78 118.972 101.78Z" fill="white"/>
<path d="M195.054 113.82C190.014 113.82 185.534 113.307 181.614 112.28C177.694 111.253 174.334 109.807 171.534 107.94C168.828 105.98 166.728 103.647 165.234 100.94C163.741 98.2333 162.854 95.2933 162.574 92.12L174.894 88.06C174.894 90.7667 175.734 93.1933 177.414 95.34C179.094 97.4867 181.474 99.1667 184.554 100.38C187.728 101.5 191.508 102.06 195.894 102.06C201.028 102.06 204.994 101.22 207.794 99.54C210.594 97.86 211.994 95.5267 211.994 92.54C211.994 90.3 211.201 88.5267 209.614 87.22C208.121 85.9133 205.928 84.84 203.034 84C200.234 83.16 196.921 82.3667 193.094 81.62C189.641 80.8733 186.188 80.0333 182.734 79.1C179.374 78.0733 176.248 76.7667 173.354 75.18C170.554 73.5933 168.268 71.54 166.494 69.02C164.814 66.4067 163.974 63.14 163.974 59.22C163.974 54.74 165.141 50.9133 167.474 47.74C169.808 44.4733 173.168 41.9533 177.554 40.18C182.034 38.3133 187.354 37.38 193.514 37.38C199.488 37.38 204.621 38.2667 208.914 40.04C213.301 41.8133 216.801 44.2867 219.414 47.46C222.028 50.6333 223.614 54.3667 224.174 58.66L211.294 62.44C211.108 59.5467 210.221 57.12 208.634 55.16C207.141 53.2 205.088 51.7533 202.474 50.82C199.861 49.7933 196.781 49.28 193.234 49.28C188.568 49.28 184.881 50.12 182.174 51.8C179.561 53.48 178.254 55.7667 178.254 58.66C178.254 60.9 179.048 62.72 180.634 64.12C182.314 65.4267 184.554 66.5 187.354 67.34C190.248 68.0867 193.514 68.8333 197.154 69.58C200.888 70.3267 204.481 71.1667 207.934 72.1C211.388 73.0333 214.468 74.2933 217.174 75.88C219.974 77.3733 222.168 79.4267 223.754 82.04C225.434 84.56 226.274 87.78 226.274 91.7C226.274 96.46 224.968 100.52 222.354 103.88C219.834 107.147 216.241 109.62 211.574 111.3C206.908 112.98 201.401 113.82 195.054 113.82Z" fill="white"/>
<path d="M238.193 112V13.3H253.593V35.98C253.593 37.94 253.546 39.9933 253.453 42.14C253.36 44.1933 253.173 46.2933 252.893 48.44C252.613 50.5867 252.333 52.7333 252.053 54.88C251.773 57.0267 251.446 59.22 251.073 61.46H253.593C254.993 56.2333 256.72 51.8467 258.773 48.3C260.92 44.66 263.58 41.9533 266.753 40.18C270.02 38.3133 273.94 37.38 278.513 37.38C286.913 37.38 293.166 40.32 297.273 46.2C301.38 51.9867 303.433 60.7133 303.433 72.38V112H288.033V74.34C288.033 66.1267 286.773 60.1067 284.253 56.28C281.826 52.4533 278.14 50.54 273.193 50.54C269.086 50.54 265.633 51.7533 262.833 54.18C260.126 56.6067 257.98 59.8733 256.393 63.98C254.806 68.0867 253.78 72.7533 253.313 77.98V112H238.193Z" fill="white"/>
<path d="M369.862 112V19.6H385.262V112H369.862ZM342.142 32.76V19.6H413.122V32.76H342.142Z" fill="white"/>
<path d="M429.834 113.82C425.821 113.82 422.228 113.073 419.054 111.58C415.881 109.993 413.361 107.66 411.494 104.58C409.721 101.5 408.834 97.6733 408.834 93.1C408.834 89.46 409.488 86.3333 410.794 83.72C412.194 81.0133 414.248 78.7733 416.954 77C419.754 75.1333 423.301 73.64 427.594 72.52C431.888 71.3067 436.974 70.28 442.854 69.44C446.121 68.9733 448.781 68.5067 450.834 68.04C452.981 67.5733 454.521 66.8267 455.454 65.8C456.481 64.7733 456.994 63.2333 456.994 61.18C456.994 58.0067 455.874 55.3 453.634 53.06C451.488 50.7267 447.988 49.56 443.134 49.56C440.428 49.56 437.721 50.0267 435.014 50.96C432.401 51.8933 430.114 53.4333 428.154 55.58C426.288 57.6333 425.028 60.4333 424.374 63.98L410.654 59.64C411.494 56.0933 412.848 52.9667 414.714 50.26C416.581 47.46 418.914 45.1267 421.714 43.26C424.514 41.3 427.734 39.8533 431.374 38.92C435.108 37.8933 439.168 37.38 443.554 37.38C449.994 37.38 455.314 38.4533 459.514 40.6C463.714 42.7467 466.841 46.06 468.894 50.54C471.041 54.9267 472.114 60.5733 472.114 67.48V82.32C472.114 85.4 472.161 88.6667 472.254 92.12C472.441 95.48 472.628 98.8867 472.814 102.34C473.094 105.7 473.421 108.92 473.794 112H459.934C459.654 109.2 459.374 106.307 459.094 103.32C458.908 100.333 458.721 97.3 458.534 94.22H456.434C455.128 97.7667 453.261 101.033 450.834 104.02C448.501 107.007 445.561 109.387 442.014 111.16C438.561 112.933 434.501 113.82 429.834 113.82ZM435.154 102.06C437.114 102.06 439.074 101.733 441.034 101.08C443.088 100.427 445.094 99.4467 447.054 98.14C449.108 96.74 450.974 94.9667 452.654 92.82C454.428 90.6733 455.968 88.1067 457.274 85.12L457.134 71.96L460.774 72.66C459.188 74.06 457.181 75.1333 454.754 75.88C452.421 76.6267 449.854 77.2333 447.054 77.7C444.254 78.0733 441.454 78.54 438.654 79.1C435.948 79.5667 433.428 80.2667 431.094 81.2C428.854 82.04 427.034 83.2533 425.634 84.84C424.328 86.4267 423.674 88.62 423.674 91.42C423.674 94.8733 424.748 97.5333 426.894 99.4C429.041 101.173 431.794 102.06 435.154 102.06Z" fill="white"/>
<path d="M514.441 113.82C508.281 113.82 502.961 112.233 498.481 109.06C494.001 105.793 490.595 101.313 488.261 95.62C485.928 89.8333 484.761 83.16 484.761 75.6C484.761 68.2267 485.835 61.6933 487.981 56C490.221 50.2133 493.488 45.6867 497.781 42.42C502.168 39.1533 507.535 37.52 513.881 37.52C518.921 37.52 523.075 38.5467 526.341 40.6C529.608 42.56 532.221 45.2667 534.181 48.72C536.235 52.1733 537.775 56 538.801 60.2H541.601C541.135 57.4933 540.668 54.6933 540.201 51.8C539.735 48.8133 539.361 45.9667 539.081 43.26C538.801 40.46 538.661 37.9867 538.661 35.84V13.3H554.061V112H540.761L541.321 91.84H538.801C537.681 96.4133 536.095 100.333 534.041 103.6C531.988 106.867 529.328 109.387 526.061 111.16C522.888 112.933 519.015 113.82 514.441 113.82ZM518.641 100.94C521.908 100.94 524.801 100.193 527.321 98.7C529.841 97.2067 531.941 95.2467 533.621 92.82C535.301 90.3933 536.561 87.78 537.401 84.98C538.335 82.0867 538.801 79.38 538.801 76.86V74.9C538.801 73.0333 538.521 71.0267 537.961 68.88C537.495 66.64 536.701 64.4467 535.581 62.3C534.555 60.06 533.248 58.0533 531.661 56.28C530.075 54.5067 528.161 53.1067 525.921 52.08C523.775 50.96 521.348 50.4 518.641 50.4C514.721 50.4 511.408 51.52 508.701 53.76C506.088 55.9067 504.081 58.8933 502.681 62.72C501.281 66.5467 500.581 70.9333 500.581 75.88C500.581 80.92 501.281 85.3533 502.681 89.18C504.175 92.9133 506.275 95.8067 508.981 97.86C511.688 99.9133 514.908 100.94 518.641 100.94Z" fill="white"/>
<path d="M610.508 113.82C605.841 113.82 601.828 112.887 598.468 111.02C595.201 109.153 592.541 106.587 590.488 103.32C588.434 100.053 586.894 96.2267 585.868 91.84H583.488L583.908 112H570.748V13.3H586.008V36.4C586.008 38.7333 585.868 41.2533 585.588 43.96C585.308 46.5733 584.934 49.28 584.468 52.08C584.094 54.7867 583.674 57.4933 583.208 60.2H585.868C586.988 56 588.528 52.22 590.488 48.86C592.541 45.4067 595.201 42.6533 598.468 40.6C601.734 38.5467 605.794 37.52 610.648 37.52C616.714 37.52 621.941 39.1533 626.328 42.42C630.714 45.5933 634.074 50.0733 636.408 55.86C638.834 61.5533 640.048 68.2267 640.048 75.88C640.048 83.3467 638.881 89.9267 636.548 95.62C634.308 101.313 630.994 105.793 626.608 109.06C622.221 112.233 616.854 113.82 610.508 113.82ZM606.168 100.94C609.901 100.94 613.121 99.9133 615.828 97.86C618.534 95.8067 620.588 92.9133 621.988 89.18C623.481 85.3533 624.228 80.92 624.228 75.88C624.228 70.9333 623.528 66.5467 622.128 62.72C620.728 58.8933 618.674 55.9067 615.968 53.76C613.354 51.52 610.134 50.4 606.308 50.4C603.601 50.4 601.128 50.96 598.888 52.08C596.741 53.1067 594.828 54.5067 593.148 56.28C591.561 58.0533 590.208 60.0133 589.088 62.16C588.061 64.3067 587.268 66.5 586.708 68.74C586.148 70.98 585.868 73.0333 585.868 74.9V76.86C585.868 79.38 586.288 82.0867 587.128 84.98C588.061 87.78 589.368 90.3933 591.048 92.82C592.821 95.2467 594.968 97.2067 597.488 98.7C600.008 100.193 602.901 100.94 606.168 100.94Z" fill="white"/>
<path d="M653.091 112V39.2H668.211V112H653.091ZM660.651 27.02C657.384 27.02 654.911 26.3667 653.231 25.06C651.551 23.66 650.711 21.6067 650.711 18.9C650.711 16.2867 651.551 14.28 653.231 12.88C654.911 11.48 657.384 10.78 660.651 10.78C664.011 10.78 666.531 11.48 668.211 12.88C669.891 14.28 670.731 16.2867 670.731 18.9C670.731 21.6067 669.891 23.66 668.211 25.06C666.531 26.3667 664.011 27.02 660.651 27.02Z" fill="white"/>
<path d="M685.121 112V39.2H698.281L697.581 64.4H699.961C700.801 58.7067 702.108 53.8533 703.881 49.84C705.654 45.8267 708.081 42.7933 711.161 40.74C714.241 38.5933 718.068 37.52 722.641 37.52C723.574 37.52 724.601 37.5667 725.721 37.66C726.841 37.7533 728.101 38.0333 729.501 38.5L728.801 54.46C727.401 53.9 725.954 53.5267 724.461 53.34C722.968 53.06 721.614 52.92 720.401 52.92C716.668 52.92 713.494 53.9933 710.881 56.14C708.268 58.1933 706.074 61.0867 704.301 64.82C702.621 68.46 701.314 72.7067 700.381 77.56V112H685.121Z" fill="white"/>
<path d="M738.48 112V13.16H753.46V69.02C756.913 67.1533 760.18 65.0067 763.26 62.58C766.433 60.06 769.326 57.4467 771.94 54.74C774.646 52.0333 776.98 49.3733 778.94 46.76C780.993 44.0533 782.58 41.5333 783.7 39.2H801.34C799.66 42.7467 797.513 46.2933 794.9 49.84C792.38 53.2933 789.486 56.56 786.22 59.64C782.953 62.6267 779.36 65.24 775.44 67.48C771.613 69.6267 767.6 71.12 763.4 71.96V73.78C768.626 73.22 773.106 73.64 776.84 75.04C780.573 76.44 783.793 78.54 786.5 81.34C789.206 84.14 791.586 87.4067 793.64 91.14C795.786 94.78 797.793 98.5133 799.66 102.34L803.58 112H786.78L783.98 105.42C781.926 100.66 779.733 96.46 777.4 92.82C775.16 89.0867 772.453 86.1467 769.28 84C766.2 81.8533 762.373 80.78 757.8 80.78H753.46V112H738.48Z" fill="white"/>
<path d="M842.485 113.82C835.485 113.82 829.279 112.327 823.865 109.34C818.452 106.353 814.205 102.013 811.125 96.32C808.139 90.6267 806.645 83.6267 806.645 75.32C806.645 66.8267 808.232 59.78 811.405 54.18C814.579 48.58 818.825 44.38 824.145 41.58C829.559 38.78 835.625 37.38 842.345 37.38C849.252 37.38 855.412 38.8267 860.825 41.72C866.239 44.6133 870.485 48.9067 873.565 54.6C876.739 60.2933 878.325 67.3867 878.325 75.88C878.325 84.28 876.739 91.3267 873.565 97.02C870.485 102.62 866.239 106.82 860.825 109.62C855.412 112.42 849.299 113.82 842.485 113.82ZM843.045 101.78C847.245 101.78 850.839 100.8 853.825 98.84C856.812 96.88 859.099 93.9867 860.685 90.16C862.272 86.3333 863.065 81.76 863.065 76.44C863.065 70.9333 862.225 66.22 860.545 62.3C858.865 58.2867 856.439 55.2067 853.266 53.06C850.186 50.9133 846.405 49.84 841.925 49.84C837.912 49.84 834.365 50.82 831.285 52.78C828.299 54.6467 826.012 57.4933 824.425 61.32C822.839 65.0533 822.045 69.6267 822.045 75.04C822.045 83.5333 823.912 90.1133 827.645 94.78C831.379 99.4467 836.512 101.78 843.045 101.78Z" fill="white"/>
<path d="M890.998 112V39.2H904.158L903.458 64.4H905.838C906.678 58.7067 907.984 53.8533 909.758 49.84C911.531 45.8267 913.958 42.7933 917.038 40.74C920.118 38.5933 923.944 37.52 928.518 37.52C929.451 37.52 930.478 37.5667 931.598 37.66C932.718 37.7533 933.978 38.0333 935.378 38.5L934.678 54.46C933.278 53.9 931.831 53.5267 930.338 53.34C928.844 53.06 927.491 52.92 926.278 52.92C922.544 52.92 919.371 53.9933 916.758 56.14C914.144 58.1933 911.951 61.0867 910.178 64.82C908.498 68.46 907.191 72.7067 906.258 77.56V112H890.998Z" fill="white"/>
<path d="M944.356 112V13.3H959.336V112H944.356Z" fill="white"/>
<path d="M992.913 113.82C988.9 113.82 985.307 113.073 982.133 111.58C978.96 109.993 976.44 107.66 974.573 104.58C972.8 101.5 971.913 97.6733 971.913 93.1C971.913 89.46 972.567 86.3333 973.873 83.72C975.273 81.0133 977.327 78.7733 980.033 77C982.833 75.1333 986.38 73.64 990.673 72.52C994.967 71.3067 1000.05 70.28 1005.93 69.44C1009.2 68.9733 1011.86 68.5067 1013.91 68.04C1016.06 67.5733 1017.6 66.8267 1018.53 65.8C1019.56 64.7733 1020.07 63.2333 1020.07 61.18C1020.07 58.0067 1018.95 55.3 1016.71 53.06C1014.57 50.7267 1011.07 49.56 1006.21 49.56C1003.51 49.56 1000.8 50.0267 998.093 50.96C995.48 51.8933 993.193 53.4333 991.233 55.58C989.367 57.6333 988.107 60.4333 987.453 63.98L973.733 59.64C974.573 56.0933 975.927 52.9667 977.793 50.26C979.66 47.46 981.993 45.1267 984.793 43.26C987.593 41.3 990.813 39.8533 994.453 38.92C998.187 37.8933 1002.25 37.38 1006.63 37.38C1013.07 37.38 1018.39 38.4533 1022.59 40.6C1026.79 42.7467 1029.92 46.06 1031.97 50.54C1034.12 54.9267 1035.19 60.5733 1035.19 67.48V82.32C1035.19 85.4 1035.24 88.6667 1035.33 92.12C1035.52 95.48 1035.71 98.8867 1035.89 102.34C1036.17 105.7 1036.5 108.92 1036.87 112H1023.01C1022.73 109.2 1022.45 106.307 1022.17 103.32C1021.99 100.333 1021.8 97.3 1021.61 94.22H1019.51C1018.21 97.7667 1016.34 101.033 1013.91 104.02C1011.58 107.007 1008.64 109.387 1005.09 111.16C1001.64 112.933 997.58 113.82 992.913 113.82ZM998.233 102.06C1000.19 102.06 1002.15 101.733 1004.11 101.08C1006.17 100.427 1008.17 99.4467 1010.13 98.14C1012.19 96.74 1014.05 94.9667 1015.73 92.82C1017.51 90.6733 1019.05 88.1067 1020.35 85.12L1020.21 71.96L1023.85 72.66C1022.27 74.06 1020.26 75.1333 1017.83 75.88C1015.5 76.6267 1012.93 77.2333 1010.13 77.7C1007.33 78.0733 1004.53 78.54 1001.73 79.1C999.027 79.5667 996.507 80.2667 994.173 81.2C991.933 82.04 990.113 83.2533 988.713 84.84C987.407 86.4267 986.753 88.62 986.753 91.42C986.753 94.8733 987.827 97.5333 989.973 99.4C992.12 101.173 994.873 102.06 998.233 102.06Z" fill="white"/>
<path d="M1051.35 112V39.2H1064.51L1063.81 64.4H1066.19C1067.03 58.7067 1068.33 53.8533 1070.11 49.84C1071.88 45.8267 1074.31 42.7933 1077.39 40.74C1080.47 38.5933 1084.29 37.52 1088.87 37.52C1089.8 37.52 1090.83 37.5667 1091.95 37.66C1093.07 37.7533 1094.33 38.0333 1095.73 38.5L1095.03 54.46C1093.63 53.9 1092.18 53.5267 1090.69 53.34C1089.19 53.06 1087.84 52.92 1086.63 52.92C1082.89 52.92 1079.72 53.9933 1077.11 56.14C1074.49 58.1933 1072.3 61.0867 1070.53 64.82C1068.85 68.46 1067.54 72.7067 1066.61 77.56V112H1051.35Z" fill="white"/>
<path d="M750.82 211.78C748.82 211.78 747.1 211.38 745.66 210.58C744.26 209.78 743.12 208.7 742.24 207.34C741.4 205.94 740.76 204.36 740.32 202.6H739.36L739.66 211H734.74V169H740.26V178.72C740.26 179.76 740.2 180.86 740.08 182.02C740 183.14 739.86 184.3 739.66 185.5C739.5 186.7 739.32 187.86 739.12 188.98H740.2C740.64 187.3 741.28 185.72 742.12 184.24C742.96 182.76 744.08 181.56 745.48 180.64C746.92 179.72 748.7 179.26 750.82 179.26C753.46 179.26 755.7 179.96 757.54 181.36C759.42 182.72 760.86 184.62 761.86 187.06C762.86 189.5 763.36 192.34 763.36 195.58C763.36 198.7 762.86 201.48 761.86 203.92C760.9 206.36 759.48 208.28 757.6 209.68C755.76 211.08 753.5 211.78 750.82 211.78ZM749.5 206.98C751.22 206.98 752.68 206.52 753.88 205.6C755.08 204.68 756 203.36 756.64 201.64C757.32 199.92 757.66 197.92 757.66 195.64C757.66 193.4 757.34 191.42 756.7 189.7C756.06 187.94 755.14 186.56 753.94 185.56C752.74 184.52 751.26 184 749.5 184C748.22 184 747.08 184.26 746.08 184.78C745.08 185.26 744.2 185.92 743.44 186.76C742.72 187.6 742.12 188.52 741.64 189.52C741.16 190.52 740.8 191.52 740.56 192.52C740.32 193.52 740.2 194.44 740.2 195.28V196C740.2 197.2 740.4 198.44 740.8 199.72C741.24 201 741.86 202.2 742.66 203.32C743.46 204.4 744.44 205.28 745.6 205.96C746.76 206.64 748.06 206.98 749.5 206.98Z" fill="white"/>
<path d="M780.194 221.44C778.554 221.44 776.934 221.24 775.334 220.84C773.774 220.48 772.334 219.92 771.014 219.16C769.694 218.4 768.614 217.42 767.774 216.22L770.534 212.26C771.454 213.62 772.754 214.66 774.434 215.38C776.114 216.1 777.954 216.46 779.954 216.46C782.194 216.46 784.054 215.96 785.534 214.96C787.054 214 788.194 212.5 788.954 210.46C789.714 208.38 790.114 205.8 790.154 202.72L790.814 196.48H789.674C789.234 199.4 788.534 201.74 787.574 203.5C786.654 205.22 785.494 206.46 784.094 207.22C782.734 207.98 781.154 208.36 779.354 208.36C777.114 208.36 775.214 207.8 773.654 206.68C772.134 205.52 770.974 203.84 770.174 201.64C769.374 199.4 768.974 196.68 768.974 193.48V179.98H774.434V192.28C774.434 196.16 774.974 199.02 776.054 200.86C777.174 202.66 778.834 203.56 781.034 203.56C782.234 203.56 783.314 203.26 784.274 202.66C785.234 202.06 786.054 201.18 786.734 200.02C787.454 198.86 788.014 197.4 788.414 195.64C788.854 193.84 789.134 191.76 789.254 189.4V179.98H794.714V203.02C794.714 205.46 794.534 207.66 794.174 209.62C793.814 211.58 793.234 213.28 792.434 214.72C791.674 216.2 790.714 217.44 789.554 218.44C788.394 219.44 787.034 220.18 785.474 220.66C783.914 221.18 782.154 221.44 780.194 221.44Z" fill="white"/>
<path d="M812.767 211L826.687 171.4H834.727L848.647 211H842.707L831.067 176.02H830.347L818.707 211H812.767ZM819.367 202.12V197.92H842.707V202.12H819.367Z" fill="white"/>
<path d="M853.224 211V169H858.684V211H853.224Z" fill="white"/>
<path d="M879.626 211.78C876.666 211.78 874.046 211.14 871.766 209.86C869.526 208.54 867.766 206.66 866.486 204.22C865.246 201.78 864.626 198.82 864.626 195.34C864.626 191.74 865.286 188.76 866.606 186.4C867.966 184 869.766 182.2 872.006 181C874.246 179.8 876.746 179.2 879.506 179.2C882.386 179.2 884.946 179.84 887.186 181.12C889.466 182.36 891.266 184.2 892.586 186.64C893.906 189.04 894.566 192.02 894.566 195.58C894.566 199.14 893.906 202.12 892.586 204.52C891.306 206.92 889.526 208.74 887.246 209.98C885.006 211.18 882.466 211.78 879.626 211.78ZM879.866 207.28C881.786 207.28 883.426 206.82 884.786 205.9C886.186 204.94 887.246 203.6 887.966 201.88C888.726 200.16 889.106 198.12 889.106 195.76C889.106 193.32 888.706 191.22 887.906 189.46C887.146 187.66 886.046 186.28 884.606 185.32C883.166 184.32 881.426 183.82 879.386 183.82C877.546 183.82 875.926 184.26 874.526 185.14C873.126 186.02 872.046 187.32 871.286 189.04C870.526 190.72 870.146 192.78 870.146 195.22C870.146 198.98 871.006 201.94 872.726 204.1C874.486 206.22 876.866 207.28 879.866 207.28Z" fill="white"/>
<path d="M921.962 220.72V212.32C921.962 211.28 922.022 210.2 922.142 209.08C922.262 207.92 922.402 206.76 922.562 205.6C922.722 204.44 922.882 203.34 923.042 202.3H922.082C921.642 203.9 920.982 205.44 920.102 206.92C919.262 208.36 918.142 209.54 916.742 210.46C915.342 211.34 913.542 211.78 911.342 211.78C908.662 211.78 906.402 211.08 904.562 209.68C902.722 208.24 901.322 206.3 900.362 203.86C899.402 201.42 898.922 198.66 898.922 195.58C898.922 192.46 899.382 189.68 900.302 187.24C901.262 184.76 902.702 182.8 904.622 181.36C906.542 179.92 908.902 179.2 911.702 179.2C913.742 179.2 915.442 179.58 916.802 180.34C918.162 181.1 919.262 182.14 920.102 183.46C920.942 184.78 921.562 186.28 921.962 187.96H922.922L922.562 180.04H927.482V220.72H921.962ZM912.842 207.04C914.082 207.04 915.202 206.78 916.202 206.26C917.202 205.74 918.062 205.08 918.782 204.28C919.502 203.44 920.102 202.52 920.582 201.52C921.062 200.52 921.422 199.52 921.662 198.52C921.902 197.52 922.022 196.62 922.022 195.82V195.1C922.022 193.82 921.802 192.54 921.362 191.26C920.922 189.94 920.302 188.74 919.502 187.66C918.742 186.54 917.782 185.66 916.622 185.02C915.462 184.34 914.162 184 912.722 184C911.042 184 909.582 184.48 908.342 185.44C907.142 186.36 906.222 187.68 905.582 189.4C904.942 191.08 904.622 193.08 904.622 195.4C904.622 197.6 904.922 199.58 905.522 201.34C906.162 203.1 907.082 204.5 908.282 205.54C909.522 206.54 911.042 207.04 912.842 207.04Z" fill="white"/>
<path d="M942.327 211.78C940.647 211.78 939.127 211.46 937.767 210.82C936.407 210.14 935.327 209.16 934.527 207.88C933.727 206.56 933.327 204.9 933.327 202.9C933.327 201.42 933.587 200.12 934.107 199C934.667 197.88 935.507 196.92 936.627 196.12C937.787 195.32 939.267 194.66 941.067 194.14C942.867 193.62 945.067 193.18 947.667 192.82C949.147 192.62 950.347 192.42 951.267 192.22C952.227 192.02 952.927 191.7 953.367 191.26C953.807 190.78 954.027 190.08 954.027 189.16C954.027 187.64 953.507 186.36 952.467 185.32C951.427 184.28 949.787 183.76 947.547 183.76C946.387 183.76 945.207 183.96 944.007 184.36C942.807 184.76 941.747 185.44 940.827 186.4C939.947 187.32 939.387 188.62 939.147 190.3L934.107 188.62C934.427 187.18 934.947 185.88 935.667 184.72C936.427 183.56 937.387 182.58 938.547 181.78C939.707 180.94 941.047 180.3 942.567 179.86C944.127 179.42 945.847 179.2 947.727 179.2C950.327 179.2 952.487 179.64 954.207 180.52C955.967 181.4 957.267 182.76 958.107 184.6C958.987 186.4 959.427 188.72 959.427 191.56V198.46C959.427 199.7 959.447 201.06 959.487 202.54C959.567 203.98 959.667 205.44 959.787 206.92C959.907 208.36 960.027 209.72 960.147 211H955.107C954.987 209.72 954.867 208.44 954.747 207.16C954.667 205.88 954.607 204.6 954.567 203.32H953.787C953.187 204.8 952.387 206.18 951.387 207.46C950.387 208.74 949.127 209.78 947.607 210.58C946.127 211.38 944.367 211.78 942.327 211.78ZM943.947 207.34C944.827 207.34 945.707 207.2 946.587 206.92C947.507 206.64 948.407 206.18 949.287 205.54C950.207 204.9 951.067 204.08 951.867 203.08C952.707 202.08 953.447 200.88 954.087 199.48V193.48L955.647 193.78C955.007 194.42 954.147 194.9 953.067 195.22C952.027 195.54 950.867 195.8 949.587 196C948.307 196.2 947.027 196.42 945.747 196.66C944.467 196.86 943.287 197.18 942.207 197.62C941.167 198.02 940.327 198.6 939.687 199.36C939.047 200.12 938.727 201.16 938.727 202.48C938.727 204.08 939.207 205.3 940.167 206.14C941.127 206.94 942.387 207.34 943.947 207.34Z" fill="white"/>
<path d="M967.205 211V171.4H981.725C983.925 171.4 985.925 171.6 987.725 172C989.565 172.4 991.125 173.02 992.405 173.86C993.685 174.66 994.665 175.72 995.345 177.04C996.065 178.36 996.425 179.94 996.425 181.78C996.425 183.3 996.125 184.64 995.525 185.8C994.925 186.96 993.965 187.9 992.645 188.62C991.365 189.34 989.665 189.9 987.545 190.3V190.96C991.225 191.28 993.885 192.28 995.525 193.96C997.205 195.64 998.045 197.84 998.045 200.56C998.045 202.8 997.505 204.7 996.425 206.26C995.385 207.78 993.765 208.96 991.565 209.8C989.405 210.6 986.605 211 983.165 211H967.205ZM972.485 206.32H983.705C986.705 206.32 988.925 205.82 990.365 204.82C991.845 203.78 992.585 202.2 992.585 200.08C992.585 197.64 991.565 195.82 989.525 194.62C987.525 193.38 984.485 192.76 980.405 192.76H972.485V206.32ZM972.485 188.68H979.325C983.245 188.68 986.165 188.16 988.085 187.12C990.005 186.04 990.965 184.44 990.965 182.32C990.965 180.2 990.125 178.62 988.445 177.58C986.805 176.54 984.305 176.02 980.945 176.02H972.485V188.68Z" fill="white"/>
<path d="M1011.73 211.78C1010.05 211.78 1008.53 211.46 1007.17 210.82C1005.81 210.14 1004.73 209.16 1003.93 207.88C1003.13 206.56 1002.73 204.9 1002.73 202.9C1002.73 201.42 1002.99 200.12 1003.51 199C1004.07 197.88 1004.91 196.92 1006.03 196.12C1007.19 195.32 1008.67 194.66 1010.47 194.14C1012.27 193.62 1014.47 193.18 1017.07 192.82C1018.55 192.62 1019.75 192.42 1020.67 192.22C1021.63 192.02 1022.33 191.7 1022.77 191.26C1023.21 190.78 1023.43 190.08 1023.43 189.16C1023.43 187.64 1022.91 186.36 1021.87 185.32C1020.83 184.28 1019.19 183.76 1016.95 183.76C1015.79 183.76 1014.61 183.96 1013.41 184.36C1012.21 184.76 1011.15 185.44 1010.23 186.4C1009.35 187.32 1008.79 188.62 1008.55 190.3L1003.51 188.62C1003.83 187.18 1004.35 185.88 1005.07 184.72C1005.83 183.56 1006.79 182.58 1007.95 181.78C1009.11 180.94 1010.45 180.3 1011.97 179.86C1013.53 179.42 1015.25 179.2 1017.13 179.2C1019.73 179.2 1021.89 179.64 1023.61 180.52C1025.37 181.4 1026.67 182.76 1027.51 184.6C1028.39 186.4 1028.83 188.72 1028.83 191.56V198.46C1028.83 199.7 1028.85 201.06 1028.89 202.54C1028.97 203.98 1029.07 205.44 1029.19 206.92C1029.31 208.36 1029.43 209.72 1029.55 211H1024.51C1024.39 209.72 1024.27 208.44 1024.15 207.16C1024.07 205.88 1024.01 204.6 1023.97 203.32H1023.19C1022.59 204.8 1021.79 206.18 1020.79 207.46C1019.79 208.74 1018.53 209.78 1017.01 210.58C1015.53 211.38 1013.77 211.78 1011.73 211.78ZM1013.35 207.34C1014.23 207.34 1015.11 207.2 1015.99 206.92C1016.91 206.64 1017.81 206.18 1018.69 205.54C1019.61 204.9 1020.47 204.08 1021.27 203.08C1022.11 202.08 1022.85 200.88 1023.49 199.48V193.48L1025.05 193.78C1024.41 194.42 1023.55 194.9 1022.47 195.22C1021.43 195.54 1020.27 195.8 1018.99 196C1017.71 196.2 1016.43 196.42 1015.15 196.66C1013.87 196.86 1012.69 197.18 1011.61 197.62C1010.57 198.02 1009.73 198.6 1009.09 199.36C1008.45 200.12 1008.13 201.16 1008.13 202.48C1008.13 204.08 1008.61 205.3 1009.57 206.14C1010.53 206.94 1011.79 207.34 1013.35 207.34Z" fill="white"/>
<path d="M1036.19 211V179.98H1041.11L1040.57 189.82H1041.59C1042.15 187.38 1042.89 185.38 1043.81 183.82C1044.77 182.26 1045.97 181.1 1047.41 180.34C1048.85 179.58 1050.53 179.2 1052.45 179.2C1055.89 179.2 1058.49 180.44 1060.25 182.92C1062.05 185.36 1062.95 189.02 1062.95 193.9V211H1057.43V194.38C1057.43 190.86 1056.87 188.26 1055.75 186.58C1054.67 184.9 1053.07 184.06 1050.95 184.06C1049.03 184.06 1047.39 184.66 1046.03 185.86C1044.71 187.06 1043.67 188.64 1042.91 190.6C1042.15 192.56 1041.73 194.68 1041.65 196.96V211H1036.19Z" fill="white"/>
<path d="M1070.14 211V169H1075.6V192.94C1077.16 192.1 1078.66 191.14 1080.1 190.06C1081.54 188.98 1082.88 187.84 1084.12 186.64C1085.36 185.44 1086.42 184.26 1087.3 183.1C1088.22 181.94 1088.92 180.9 1089.4 179.98H1095.82C1095.06 181.46 1094.08 182.96 1092.88 184.48C1091.72 185.96 1090.42 187.36 1088.98 188.68C1087.54 189.96 1086.02 191.06 1084.42 191.98C1082.86 192.9 1081.26 193.56 1079.62 193.96V194.68C1081.62 194.52 1083.38 194.76 1084.9 195.4C1086.42 196.04 1087.76 196.96 1088.92 198.16C1090.12 199.36 1091.22 200.74 1092.22 202.3C1093.22 203.82 1094.18 205.44 1095.1 207.16L1096.96 211H1090.78L1089.46 208.24C1088.38 206.2 1087.28 204.36 1086.16 202.72C1085.04 201.04 1083.76 199.72 1082.32 198.76C1080.88 197.8 1079.16 197.32 1077.16 197.32H1075.6V211H1070.14Z" fill="white"/>
</g>
<defs>
<clipPath id="clip0_88_19">
<rect width="1097" height="222" fill="white"/>
</clipPath>
</defs>
</svg>
