<svg width="18" height="21" viewBox="0 0 18 21" fill="none" xmlns="http://www.w3.org/2000/svg">
<path d="M17.2617 1.08594V14.2145H14.0586V4.79688C14.0586 3.82773 13.2699 3.03906 12.3008 3.03906H7.20312V1.08594C7.20312 0.7625 7.46602 0.5 7.79023 0.5H10.8625C11.1867 0.5 11.4496 0.7625 11.4496 1.08594C11.4496 1.5168 11.8008 1.86719 12.2324 1.86719C12.6641 1.86719 13.0152 1.5168 13.0152 1.08594C13.0152 0.7625 13.2781 0.5 13.6023 0.5H16.6746C16.9988 0.5 17.2617 0.7625 17.2617 1.08594Z" fill="#3F9CFB"/>
<path d="M17.2617 15.3862V17.3749C17.2617 17.6077 17.1258 17.8085 16.9293 17.903C16.9121 17.9112 16.8945 17.9187 16.8766 17.9253C16.8137 17.9483 16.7461 17.9608 16.6758 17.9608H14.0586V15.3862H17.2617Z" fill="#3F9CFB"/>
<path d="M5.06953 12.9414C5.10664 13.6613 5.21328 14.3586 5.39492 14.941C4.64727 14.5293 4.09648 13.8027 3.92188 12.9414H5.06953Z" fill="#3F9CFB"/>
<path d="M5.39492 9.77002C5.21328 10.3524 5.10664 11.0497 5.06953 11.7696H3.92188C4.09648 10.9083 4.64727 10.1817 5.39492 9.77002Z" fill="#3F9CFB"/>
<path d="M7.38242 12.9414C7.30859 14.2207 7.00313 15.0059 6.81328 15.25C6.62344 15.0059 6.31797 14.2207 6.24414 12.9414H7.38242Z" fill="#3F9CFB"/>
<path d="M6.81328 9.46094C7.00313 9.70508 7.30859 10.4902 7.38242 11.7695H6.24414C6.31797 10.4902 6.62344 9.70508 6.81328 9.46094Z" fill="#3F9CFB"/>
<path d="M8.55586 12.9414H9.70352C9.52891 13.8027 8.97812 14.5293 8.23047 14.941C8.41211 14.3586 8.51875 13.6613 8.55586 12.9414Z" fill="#3F9CFB"/>
<path d="M9.70352 11.7696H8.55586C8.51875 11.0497 8.41211 10.3524 8.23047 9.77002C8.97812 10.1817 9.52891 10.9083 9.70352 11.7696Z" fill="#3F9CFB"/>
<path d="M12.3008 4.21094H1.32422C1.00078 4.21094 0.738281 4.47344 0.738281 4.79688V19.9141C0.738281 20.2375 1.00078 20.5 1.32422 20.5H12.3008C12.6242 20.5 12.8867 20.2375 12.8867 19.9141V4.79688C12.8867 4.47344 12.6242 4.21094 12.3008 4.21094ZM6.8125 16.4766C4.54023 16.4766 2.69141 14.6277 2.69141 12.3555C2.69141 10.0832 4.54023 8.23438 6.8125 8.23438C9.08477 8.23438 10.9336 10.0832 10.9336 12.3555C10.9336 14.6277 9.08477 16.4766 6.8125 16.4766Z" fill="#3F9CFB"/>
</svg>
