<svg width="20" height="21" viewBox="0 0 20 21" fill="none" xmlns="http://www.w3.org/2000/svg">
<g clip-path="url(#clip0_0_921)">
<path fill-rule="evenodd" clip-rule="evenodd" d="M6.38914 7.76478C6.4626 7.75344 6.52963 7.71633 6.57824 7.6601L7.12777 7.02209C7.15679 6.98845 7.17827 6.949 7.1908 6.90638C7.20332 6.86377 7.20659 6.81896 7.20039 6.77498L6.72621 3.38498C6.71059 3.27533 6.69859 3.17635 6.68715 3.08736C6.63246 2.65189 6.59609 2.364 6.35285 2.15615C6.13371 1.96865 5.81379 1.91049 5.21965 1.81557C3.01605 1.46322 1.32234 2.68506 0.183594 5.44568C0.168127 5.48347 0.160166 5.52391 0.160156 5.56475C0.160156 7.85693 0.481367 9.94564 1.11461 11.7729C1.75277 13.616 2.71227 15.203 3.9657 16.4901C5.23641 17.7948 6.81574 18.797 8.65938 19.4691C10.5349 20.1522 12.6996 20.4988 15.0938 20.4988C15.1347 20.4987 15.1751 20.4908 15.2129 20.4753C17.9551 19.3449 19.1786 17.6656 18.8506 15.4848C18.7603 14.8822 18.7105 14.5501 18.5152 14.3199C18.3032 14.0711 18.0139 14.0324 17.5347 13.9683C17.4702 13.9597 17.4007 13.9506 17.3263 13.9401L13.8839 13.4584C13.8399 13.4523 13.7951 13.4557 13.7524 13.4682C13.7098 13.4808 13.6703 13.5022 13.6366 13.5312L12.9989 14.0807C12.9426 14.1293 12.9055 14.1963 12.8942 14.2698L12.7117 15.4515C12.0411 16.0076 11.447 16.1312 10.8978 15.8291C10.8919 15.8261 10.8861 15.823 10.8801 15.8202C7.42305 14.1959 6.46285 13.2358 4.83875 9.77889C4.83598 9.77299 4.83285 9.76717 4.82969 9.76119C4.52746 9.21201 4.65133 8.61787 5.2075 7.94705L6.38914 7.76478ZM12.4559 4.93705C12.3368 4.82553 12.2478 4.68576 12.1971 4.53069C12.1463 4.37562 12.1356 4.21025 12.1657 4.0499C12.1695 4.02873 12.1755 4.00803 12.1838 3.98814C12.2787 3.75703 12.4324 3.5547 12.6295 3.40118C12.8267 3.24765 13.0605 3.14825 13.3078 3.11279C13.5552 3.07733 13.8075 3.10704 14.0399 3.19899C14.2722 3.29094 14.4765 3.44194 14.6326 3.63707C14.7887 3.83219 14.8911 4.06468 14.9298 4.31154C14.9685 4.5584 14.9421 4.81108 14.8532 5.04461C14.7643 5.27813 14.616 5.48441 14.4229 5.64304C14.2299 5.80167 13.9988 5.90716 13.7524 5.94908L13.7368 5.95131C13.4797 5.98169 13.2437 6.10843 13.0764 6.30598C12.9091 6.50352 12.8229 6.75717 12.8352 7.01576H14.6975C14.7803 7.01576 14.8598 7.04869 14.9184 7.10729C14.977 7.1659 15.01 7.24538 15.01 7.32826C15.01 7.41114 14.977 7.49063 14.9184 7.54923C14.8598 7.60784 14.7803 7.64076 14.6975 7.64076H12.5715C12.5034 7.6408 12.4371 7.61856 12.3828 7.57743C12.3285 7.5363 12.2891 7.47854 12.2707 7.41295C12.2065 7.1845 12.1924 6.94488 12.2294 6.71048C12.2663 6.47608 12.3535 6.25242 12.4849 6.05481C12.6162 5.85721 12.7888 5.69031 12.9906 5.56554C13.1925 5.44077 13.4189 5.36107 13.6544 5.33189C13.7915 5.30735 13.92 5.24788 14.0275 5.15922C14.1349 5.07056 14.2177 4.9557 14.2678 4.82573C14.318 4.69575 14.3338 4.55505 14.3137 4.41719C14.2936 4.27934 14.2384 4.14898 14.1532 4.0387C14.0681 3.92842 13.956 3.84194 13.8277 3.7876C13.6995 3.73326 13.5593 3.7129 13.4209 3.72849C13.2825 3.74407 13.1504 3.79507 13.0374 3.87656C12.9244 3.95805 12.8343 4.06729 12.7759 4.19373C12.7707 4.24684 12.7777 4.30044 12.7964 4.3504C12.8152 4.40037 12.8452 4.44536 12.884 4.48193C12.9149 4.50979 12.9399 4.54353 12.9576 4.58117C12.9752 4.6188 12.9852 4.65959 12.9869 4.70113C12.9886 4.74268 12.982 4.78414 12.9675 4.8231C12.9529 4.86206 12.9308 4.89773 12.9023 4.92801C12.8738 4.9583 12.8396 4.9826 12.8016 4.99949C12.7636 5.01638 12.7226 5.02551 12.681 5.02636C12.6395 5.02721 12.5981 5.01975 12.5595 5.00443C12.5208 4.98911 12.4856 4.96623 12.4559 4.93713V4.93705ZM15.3321 6.09291C15.3029 6.05473 15.2829 6.01034 15.2736 5.96317C15.2643 5.916 15.266 5.86733 15.2785 5.82092L15.9574 3.32873C15.9792 3.24875 16.0318 3.18068 16.1038 3.13951C16.1757 3.09833 16.2611 3.08742 16.341 3.10918C16.421 3.13094 16.4891 3.18357 16.5303 3.25552C16.5714 3.32746 16.5823 3.41281 16.5606 3.49279L15.9891 5.59045H17.1684V3.58549C17.1684 3.50269 17.2013 3.42328 17.2598 3.36474C17.3184 3.30619 17.3978 3.2733 17.4806 3.2733C17.5634 3.2733 17.6428 3.30619 17.7013 3.36474C17.7599 3.42328 17.7928 3.50269 17.7928 3.58549V7.319C17.7928 7.4018 17.7599 7.48121 17.7013 7.53975C17.6428 7.5983 17.5634 7.63119 17.4806 7.63119C17.3978 7.63119 17.3184 7.5983 17.2598 7.53975C17.2013 7.48121 17.1684 7.4018 17.1684 7.319V6.21545H15.5802C15.5322 6.21547 15.4849 6.20442 15.4419 6.18317C15.3988 6.16192 15.3613 6.13103 15.3321 6.09291ZM10.2642 10.0769C10.2254 10.038 10.1975 9.98969 10.1833 9.93667C10.1691 9.88366 10.1691 9.82784 10.1833 9.77482L10.7244 7.75611C10.2023 6.8301 9.99816 5.75852 10.1431 4.70542C10.2881 3.65233 10.7741 2.67575 11.527 1.92521C13.4262 0.026504 16.5166 0.0259571 18.4157 1.92521C19.2492 2.75705 19.7532 3.86274 19.8343 5.03757C19.9153 6.21241 19.568 7.37683 18.8566 8.31528C18.1452 9.25373 17.1178 9.90264 15.9648 10.1419C14.8117 10.3812 13.611 10.1945 12.5849 9.61662L10.5661 10.1578C10.5131 10.1719 10.4573 10.1719 10.4043 10.1577C10.3513 10.1435 10.303 10.1156 10.2642 10.0769Z" fill="#3F9CFB"/>
</g>
<defs>
<clipPath id="clip0_0_921">
<rect width="20" height="20" fill="white" transform="translate(0 0.5)"/>
</clipPath>
</defs>
</svg>
