<svg width="20" height="21" viewBox="0 0 20 21" fill="none" xmlns="http://www.w3.org/2000/svg">
<g clip-path="url(#clip0_0_956)">
<path d="M15.0606 0.916748H5.93945C4.68675 0.916748 3.67039 1.78243 3.67039 2.84938V7.33757H2.27522C1.57008 7.33757 1 7.82633 1 8.42689V12.5733C1 13.1738 1.57008 13.6626 2.27522 13.6626H3.67039V18.1508C3.67039 19.2177 4.68675 20.0834 5.93945 20.0834H15.0606C16.3132 20.0834 17.3296 19.2177 17.3296 18.1508V13.6626H18.7248C19.4299 13.6626 20 13.1738 20 12.5733V8.42689C20 7.82633 19.4299 7.33757 18.7248 7.33757H17.3296V2.84938C17.3296 1.78243 16.3132 0.916748 15.0606 0.916748ZM8.91731 2.45328H11.5426C11.7489 2.45328 11.9177 2.59703 11.9177 2.77272C11.9177 2.95161 11.7489 3.09216 11.5426 3.09216H8.91731C8.71101 3.09216 8.54226 2.95161 8.54226 2.77272C8.54226 2.59703 8.71101 2.45328 8.91731 2.45328ZM12.0827 18.5469H8.91731C8.70726 18.5469 8.54226 18.4031 8.54226 18.2274C8.54226 18.0486 8.70726 17.908 8.91731 17.908H12.0827C12.2927 17.908 12.4577 18.0486 12.4577 18.2274C12.4577 18.4031 12.2927 18.5469 12.0827 18.5469ZM19.2499 8.42689V12.5733C19.2499 12.8224 19.0136 13.0237 18.7248 13.0237H2.27522C1.98642 13.0237 1.7501 12.8224 1.7501 12.5733V8.42689C1.7501 8.17771 1.98642 7.97646 2.27522 7.97646H18.7248C19.0136 7.97646 19.2499 8.17771 19.2499 8.42689Z" fill="#3F9CFB"/>
<path d="M6.25188 9.82663C6.1643 9.67831 5.97295 9.62903 5.82372 9.71707L5.42791 9.95164V9.4917C5.42791 9.31912 5.28814 9.1792 5.11541 9.1792C4.94268 9.1792 4.80291 9.31912 4.80291 9.4917V9.95145L4.4074 9.71707C4.25847 9.62903 4.06713 9.67831 3.97924 9.82663C3.89135 9.9751 3.94017 10.1667 4.08879 10.2548L4.50257 10.5L4.08879 10.7452C3.94017 10.8333 3.89135 11.0249 3.97924 11.1734C4.03753 11.2719 4.14159 11.3266 4.2484 11.3266C4.30242 11.3266 4.35735 11.3125 4.4074 11.2829L4.80291 11.0486V11.5083C4.80291 11.6809 4.94268 11.8208 5.11541 11.8208C5.28814 11.8208 5.42791 11.6809 5.42791 11.5083V11.0484L5.82372 11.2829C5.87377 11.3125 5.9287 11.3266 5.98272 11.3266C6.08953 11.3266 6.19359 11.2719 6.25188 11.1734C6.33977 11.0249 6.29094 10.8333 6.14232 10.7452L5.72854 10.5L6.14232 10.2548C6.29094 10.1667 6.33977 9.9751 6.25188 9.82663Z" fill="#3F9CFB"/>
<path d="M9.50774 9.82663C9.42015 9.67831 9.22881 9.62903 9.07958 9.71707L8.68377 9.95164V9.4917C8.68377 9.31912 8.54399 9.1792 8.37127 9.1792C8.19854 9.1792 8.05877 9.31912 8.05877 9.4917V9.95145L7.66326 9.71707C7.51433 9.62903 7.32299 9.67831 7.2351 9.82663C7.14721 9.9751 7.19603 10.1667 7.34465 10.2548L7.75843 10.5L7.34465 10.7452C7.19603 10.8333 7.14721 11.0249 7.2351 11.1734C7.29338 11.2719 7.39745 11.3266 7.50426 11.3266C7.55828 11.3266 7.61321 11.3125 7.66326 11.2829L8.05877 11.0486V11.5083C8.05877 11.6809 8.19854 11.8208 8.37127 11.8208C8.54399 11.8208 8.68377 11.6809 8.68377 11.5083V11.0484L9.07958 11.2829C9.12963 11.3125 9.18456 11.3266 9.23857 11.3266C9.34539 11.3266 9.44945 11.2719 9.50774 11.1734C9.59563 11.0249 9.5468 10.8333 9.39818 10.7452L8.9844 10.5L9.39818 10.2548C9.5468 10.1667 9.59563 9.9751 9.50774 9.82663Z" fill="#3F9CFB"/>
<path d="M12.7656 9.82663C12.678 9.67831 12.4866 9.62903 12.3374 9.71707L11.9419 9.95145V9.4917C11.9419 9.31912 11.8021 9.1792 11.6294 9.1792C11.4567 9.1792 11.3169 9.31912 11.3169 9.4917V9.95164L10.9211 9.71707C10.7721 9.62903 10.5808 9.67831 10.4929 9.82663C10.405 9.9751 10.4538 10.1667 10.6025 10.2548L11.0162 10.5L10.6025 10.7452C10.4538 10.8333 10.405 11.0249 10.4929 11.1734C10.5512 11.2719 10.6553 11.3266 10.7621 11.3266C10.8161 11.3266 10.871 11.3125 10.9211 11.2829L11.3169 11.0484V11.5083C11.3169 11.6809 11.4567 11.8208 11.6294 11.8208C11.8021 11.8208 11.9419 11.6809 11.9419 11.5083V11.0486L12.3374 11.2829C12.3874 11.3125 12.4424 11.3266 12.4964 11.3266C12.6032 11.3266 12.7073 11.2719 12.7656 11.1734C12.8534 11.0249 12.8046 10.8333 12.656 10.7452L12.2422 10.5L12.656 10.2548C12.8046 10.1667 12.8534 9.9751 12.7656 9.82663Z" fill="#3F9CFB"/>
<path d="M15.1977 9.4917C15.1977 9.31912 15.058 9.1792 14.8852 9.1792C14.7125 9.1792 14.5727 9.31912 14.5727 9.4917V9.95164L14.1769 9.71707C14.028 9.62903 13.8367 9.67831 13.7488 9.82663C13.6609 9.9751 13.7097 10.1667 13.8583 10.2548L14.2721 10.5L13.8583 10.7452C13.7097 10.8333 13.6609 11.0249 13.7488 11.1734C13.8071 11.2719 13.9111 11.3266 14.0179 11.3266C14.0719 11.3266 14.1269 11.3125 14.1769 11.2829L14.5727 11.0484V11.5083C14.5727 11.6809 14.7125 11.8208 14.8852 11.8208C15.058 11.8208 15.1977 11.6809 15.1977 11.5083V11.0486L15.5933 11.2829C15.6433 11.3125 15.6982 11.3266 15.7522 11.3266C15.8591 11.3266 15.9631 11.2719 16.0214 11.1734C16.1093 11.0249 16.0605 10.8333 15.9119 10.7452L15.4981 10.5L15.9119 10.2548C16.0605 10.1667 16.1093 9.9751 16.0214 9.82663C15.9338 9.67831 15.7425 9.62903 15.5933 9.71707L15.1977 9.95145V9.4917Z" fill="#3F9CFB"/>
</g>
<defs>
<clipPath id="clip0_0_956">
<rect width="20" height="20" fill="white" transform="translate(0 0.5)"/>
</clipPath>
</defs>
</svg>
