<svg width="27" height="27" viewBox="0 0 27 27" fill="none" xmlns="http://www.w3.org/2000/svg">
<path d="M13.5 24.75C7.28663 24.75 2.25 19.7134 2.25 13.5C2.25 7.28663 7.28663 2.25 13.5 2.25C19.7134 2.25 24.75 7.28663 24.75 13.5C24.75 19.7134 19.7134 24.75 13.5 24.75ZM12.375 16.875V19.125H14.625V16.875H12.375ZM14.625 15.0244C15.5291 14.7519 16.3053 14.1637 16.8122 13.367C17.319 12.5702 17.5229 11.6179 17.3866 10.6835C17.2503 9.74911 16.7829 8.89474 16.0695 8.27601C15.3562 7.65728 14.4443 7.31535 13.5 7.3125C12.5897 7.31222 11.7073 7.62738 11.0032 8.20436C10.299 8.78134 9.81656 9.58449 9.63788 10.4771L11.8451 10.9193C11.9078 10.6059 12.0581 10.3167 12.2787 10.0854C12.4992 9.85413 12.7809 9.69024 13.091 9.61279C13.401 9.53535 13.7267 9.54755 14.0301 9.64797C14.3335 9.74838 14.6022 9.93289 14.8048 10.18C15.0075 10.4272 15.1357 10.7268 15.1748 11.0439C15.2138 11.3611 15.1619 11.6829 15.0252 11.9718C14.8885 12.2607 14.6726 12.5048 14.4026 12.6757C14.1326 12.8467 13.8196 12.9375 13.5 12.9375C13.2016 12.9375 12.9155 13.056 12.7045 13.267C12.4935 13.478 12.375 13.7641 12.375 14.0625V15.75H14.625V15.0244Z" fill="#828282"/>
</svg>
