<svg width="18" height="16" viewBox="0 0 18 16" fill="none" xmlns="http://www.w3.org/2000/svg">
<path d="M15.0961 3.56087L15.4496 2.39101C15.4819 2.28429 15.5347 2.18505 15.605 2.09895C15.6753 2.01284 15.7618 1.94157 15.8594 1.88918C15.957 1.8368 16.0638 1.80434 16.1739 1.79365C16.2839 1.78296 16.3949 1.79425 16.5006 1.82689C16.6063 1.85952 16.7046 1.91286 16.7899 1.98384C16.8752 2.05483 16.9458 2.14208 16.9977 2.24062C17.0496 2.33915 17.0817 2.44704 17.0923 2.55812C17.1029 2.6692 17.0917 2.78129 17.0594 2.88801L16.0748 6.13763C16.0096 6.35299 15.8623 6.53338 15.6654 6.63916C15.4684 6.74494 15.2379 6.76745 15.0246 6.70175L11.8057 5.70775C11.6978 5.67708 11.5971 5.62496 11.5094 5.55443C11.4217 5.48391 11.3489 5.39641 11.2951 5.29707C11.2414 5.19774 11.2079 5.08856 11.1965 4.97596C11.1852 4.86337 11.1962 4.74962 11.229 4.64139C11.2618 4.53316 11.3157 4.43264 11.3875 4.34573C11.4594 4.25882 11.5476 4.18728 11.6472 4.13529C11.7468 4.08331 11.8557 4.05194 11.9674 4.04302C12.0792 4.0341 12.1916 4.04782 12.298 4.08336L13.7051 4.51749C13.083 3.56503 12.2154 2.80193 11.1957 2.31037C10.1759 1.81881 9.04264 1.61742 7.91792 1.72789C6.79319 1.83836 5.71962 2.25651 4.81284 2.9373C3.90606 3.61808 3.20042 4.53571 2.77192 5.59136L2.55312 6.12914C2.51333 6.23529 2.45287 6.33233 2.37531 6.4145C2.29776 6.49668 2.20468 6.56233 2.10157 6.60758C1.99846 6.65283 1.88741 6.67677 1.77499 6.67797C1.66257 6.67918 1.55104 6.65763 1.44701 6.61459C1.34297 6.57156 1.24853 6.50791 1.16927 6.42742C1.09 6.34692 1.02752 6.25121 0.985501 6.14592C0.943487 6.04064 0.922796 5.92793 0.92465 5.81444C0.926504 5.70095 0.950865 5.58898 0.996294 5.48516L1.21509 4.94738C1.75891 3.60783 2.65387 2.44313 3.80387 1.57832C4.95387 0.713512 6.31547 0.181265 7.74248 0.0387277C9.16949 -0.103809 10.608 0.148748 11.9036 0.769281C13.1991 1.38981 14.3028 2.35488 15.0961 3.56087ZM2.0339 12.5774L1.75872 13.6912C1.7341 13.8017 1.68785 13.906 1.62271 13.9982C1.55756 14.0904 1.47482 14.1684 1.37936 14.2279C1.28389 14.2873 1.17762 14.3268 1.0668 14.3442C0.955975 14.3616 0.842831 14.3564 0.734016 14.329C0.6252 14.3016 0.522909 14.2525 0.433153 14.1846C0.343398 14.1167 0.267988 14.0314 0.211357 13.9337C0.154727 13.836 0.118016 13.7278 0.103384 13.6155C0.0887523 13.5033 0.0964936 13.3892 0.126153 13.28L0.939912 9.98366C0.967366 9.87142 1.01722 9.76603 1.08642 9.67392C1.15563 9.58181 1.24272 9.50493 1.34238 9.44799C1.44203 9.39104 1.55215 9.35523 1.66599 9.34274C1.77983 9.33026 1.895 9.34136 2.00445 9.37536L5.22582 10.1859C5.44242 10.2404 5.6287 10.3795 5.74367 10.5727C5.85864 10.7659 5.89288 10.9973 5.83887 11.216C5.78486 11.4346 5.64702 11.6227 5.45566 11.7388C5.26431 11.8548 5.03512 11.8894 4.81852 11.8349L3.31555 11.4568C3.95807 12.4498 4.86628 13.2386 5.93484 13.7317C7.0034 14.2247 8.18852 14.4018 9.35274 14.2424C10.517 14.0831 11.6126 13.5938 12.5125 12.8312C13.4124 12.0687 14.0798 11.0643 14.4372 9.93438C14.505 9.71965 14.6546 9.54093 14.853 9.43752C14.9512 9.38632 15.0585 9.35516 15.1686 9.3458C15.2788 9.33645 15.3897 9.34909 15.495 9.38301C15.6003 9.41693 15.698 9.47145 15.7824 9.54348C15.8669 9.6155 15.9364 9.70361 15.9871 9.80277C16.0379 9.90194 16.0687 10.0102 16.078 10.1214C16.0873 10.2326 16.0747 10.3446 16.0411 10.4509C15.6909 11.5605 15.104 12.579 14.3218 13.4349C13.5396 14.2908 12.5811 14.9632 11.5137 15.4048C9.85071 16.0926 8.00508 16.1873 6.28156 15.6733C4.55804 15.1592 3.05969 14.0672 2.0339 12.5774Z" fill="white"/>
</svg>
