<svg width="26" height="26" viewBox="0 0 26 26" fill="none" xmlns="http://www.w3.org/2000/svg">
<path d="M20.2782 7.02223L20.7188 5.57767C20.7591 5.4459 20.8249 5.32336 20.9126 5.21703C21.0002 5.11071 21.108 5.0227 21.2296 4.95802C21.3513 4.89333 21.4845 4.85325 21.6217 4.84005C21.7589 4.82685 21.8973 4.8408 22.029 4.8811C22.1608 4.92139 22.2834 4.98725 22.3897 5.0749C22.496 5.16256 22.584 5.2703 22.6487 5.39197C22.7134 5.51364 22.7535 5.64686 22.7667 5.78402C22.7799 5.92118 22.7659 6.0596 22.7256 6.19137L21.4982 10.204C21.4169 10.4699 21.2333 10.6927 20.9878 10.8233C20.7423 10.9539 20.455 10.9817 20.189 10.9006L16.1763 9.6732C16.0418 9.63533 15.9162 9.57097 15.8069 9.48389C15.6976 9.3968 15.6068 9.28876 15.5398 9.1661C15.4729 9.04344 15.4311 8.90863 15.4169 8.76959C15.4028 8.63056 15.4165 8.49009 15.4574 8.35646C15.4983 8.22282 15.5655 8.0987 15.655 7.99138C15.7445 7.88406 15.8546 7.79572 15.9788 7.73153C16.1029 7.66734 16.2386 7.6286 16.3779 7.61759C16.5172 7.60657 16.6574 7.62351 16.79 7.6674L18.5441 8.20347C17.7687 7.02736 16.6871 6.08508 15.4158 5.4781C14.1446 4.87112 12.7318 4.62244 11.3298 4.75885C9.92765 4.89527 8.58933 5.41159 7.45893 6.25223C6.32852 7.09287 5.44886 8.22596 4.9147 9.52948L4.64194 10.1935C4.59233 10.3246 4.51696 10.4444 4.42028 10.5459C4.3236 10.6474 4.20756 10.7284 4.07903 10.7843C3.95049 10.8402 3.81206 10.8698 3.67191 10.8712C3.53176 10.8727 3.39274 10.8461 3.26304 10.793C3.13335 10.7398 3.01562 10.6613 2.91681 10.5619C2.818 10.4625 2.7401 10.3443 2.68773 10.2143C2.63535 10.0843 2.60956 9.94508 2.61187 9.80494C2.61418 9.66481 2.64455 9.52655 2.70118 9.39835L2.97394 8.73429C3.65187 7.08022 4.76753 5.64203 6.20113 4.57416C7.63474 3.50629 9.33213 2.84907 11.1111 2.67307C12.89 2.49706 14.6833 2.80892 16.2983 3.57516C17.9134 4.34139 19.2892 5.53307 20.2782 7.02223ZM3.99467 18.1559L3.65163 19.5312C3.62093 19.6676 3.56329 19.7965 3.48207 19.9103C3.40086 20.0241 3.29772 20.1205 3.17871 20.1939C3.0597 20.2673 2.92723 20.3161 2.78907 20.3376C2.65092 20.359 2.50987 20.3526 2.37422 20.3188C2.23857 20.2849 2.11105 20.2243 1.99916 20.1405C1.88727 20.0567 1.79327 19.9513 1.72267 19.8306C1.65207 19.71 1.60631 19.5764 1.58807 19.4378C1.56983 19.2992 1.57948 19.1583 1.61645 19.0235L2.63089 14.9531C2.66512 14.8145 2.72727 14.6844 2.81354 14.5707C2.89981 14.4569 3.00838 14.362 3.13261 14.2917C3.25684 14.2214 3.39412 14.1771 3.53603 14.1617C3.67795 14.1463 3.82152 14.16 3.95795 14.202L7.97375 15.2028C8.24377 15.2701 8.47599 15.442 8.61931 15.6805C8.76263 15.9191 8.80532 16.2048 8.73799 16.4748C8.67066 16.7448 8.49882 16.977 8.26028 17.1203C8.02174 17.2637 7.73603 17.3064 7.46601 17.239L5.59239 16.7722C6.39336 17.9984 7.52555 18.9724 8.85763 19.5812C10.1897 20.19 11.6671 20.4087 13.1184 20.2119C14.5698 20.0151 15.9356 19.4109 17.0574 18.4693C18.1793 17.5278 19.0112 16.2875 19.4568 14.8923C19.5413 14.6271 19.7278 14.4064 19.9751 14.2787C20.0975 14.2155 20.2312 14.177 20.3686 14.1655C20.5059 14.1539 20.6441 14.1696 20.7754 14.2114C20.9067 14.2533 21.0285 14.3206 21.1337 14.4096C21.239 14.4985 21.3257 14.6073 21.3889 14.7298C21.4522 14.8522 21.4907 14.9859 21.5022 15.1232C21.5138 15.2606 21.4981 15.3988 21.4563 15.5301C21.0196 16.9002 20.288 18.1579 19.3129 19.2147C18.3378 20.2716 17.1429 21.1019 15.8123 21.6472C13.7392 22.4965 11.4384 22.6134 9.28985 21.9787C7.1413 21.3439 5.27344 19.9955 3.99467 18.1559Z" fill="white"/>
</svg>
