<svg width="19" height="19" viewBox="0 0 19 19" fill="none" xmlns="http://www.w3.org/2000/svg">
<path d="M8.23324 1.8999C4.74293 1.8999 1.8999 4.74293 1.8999 8.23324C1.8999 11.7235 4.74293 14.5666 8.23324 14.5666C9.75102 14.5666 11.1449 14.0276 12.2373 13.1329L16.0188 16.9144C16.0771 16.9751 16.147 17.0237 16.2244 17.0571C16.3017 17.0905 16.385 17.1082 16.4692 17.109C16.5535 17.1099 16.6371 17.0939 16.7151 17.0621C16.7931 17.0302 16.864 16.9831 16.9236 16.9236C16.9831 16.864 17.0302 16.7931 17.0621 16.7151C17.0939 16.6371 17.1099 16.5535 17.109 16.4692C17.1082 16.385 17.0905 16.3017 17.0571 16.2244C17.0237 16.147 16.9751 16.0771 16.9144 16.0188L13.1329 12.2373C14.0276 11.1449 14.5666 9.75102 14.5666 8.23324C14.5666 4.74293 11.7235 1.8999 8.23324 1.8999ZM8.23324 3.16657C11.039 3.16657 13.2999 5.42749 13.2999 8.23324C13.2999 11.039 11.039 13.2999 8.23324 13.2999C5.42749 13.2999 3.16657 11.039 3.16657 8.23324C3.16657 5.42749 5.42749 3.16657 8.23324 3.16657Z" fill="white"/>
</svg>
