<svg width="39" height="40" viewBox="0 0 39 40" fill="none" xmlns="http://www.w3.org/2000/svg">
<path d="M19.5 3.75C10.726 3.75 3.65625 11.001 3.65625 20C3.65625 28.999 10.726 36.25 19.5 36.25C28.274 36.25 35.3438 28.999 35.3438 20C35.3438 18.252 35.1152 16.5088 34.5059 14.8828L32.5254 16.875C32.7682 17.876 32.9062 18.877 32.9062 20C32.9062 27.627 26.9363 33.75 19.5 33.75C12.0637 33.75 6.09375 27.627 6.09375 20C6.09375 12.373 12.0637 6.25 19.5 6.25C23.1562 6.25 26.4412 7.74414 28.7549 10.1172L30.4688 8.35938C27.6647 5.4834 23.7656 3.75 19.5 3.75ZM33.249 9.10156L19.5 23.2031L14.2822 17.8516L12.5303 19.6484L18.624 25.8984L19.5 26.7578L20.376 25.8984L35.001 10.8984L33.249 9.10156Z" fill="white"/>
</svg>
