<svg width="21" height="17" viewBox="0 0 21 17" fill="none" xmlns="http://www.w3.org/2000/svg">
<path d="M1.41503 7.308C7.87705 4.54344 16.2394 1.17287 17.3937 0.706356C20.4216 -0.514671 21.3507 -0.280666 20.8875 2.42339C20.5548 4.36694 19.5949 10.8016 18.8298 14.8067C18.3758 17.1817 17.3572 17.4632 15.7556 16.4357C14.9854 15.9412 11.0978 13.4411 10.254 12.8541C9.48381 12.3191 8.42155 11.6756 9.75375 10.4081C10.2278 9.95656 13.3354 7.07099 15.7566 4.82495C16.0739 4.52994 15.6754 4.04543 15.3093 4.28193C12.0459 6.38648 7.52125 9.30754 6.94538 9.68805C6.07542 10.2626 5.2399 10.5261 3.74009 10.1071C2.60687 9.79055 1.49987 9.41305 1.069 9.26904C-0.590206 8.71503 -0.196356 7.99751 1.41503 7.308Z" fill="white"/>
</svg>
