<svg width="33" height="33" viewBox="0 0 33 33" fill="none" xmlns="http://www.w3.org/2000/svg">
<path d="M4.00804 15.0483C12.6485 11.2471 23.83 6.61266 25.3735 5.97122C29.4222 4.29234 30.6645 4.61409 30.045 8.33209C29.6002 11.0044 28.3167 19.8518 27.2937 25.3587C26.6866 28.6243 25.3247 29.0114 23.1831 27.5986C22.1532 26.9187 16.955 23.4812 15.8269 22.674C14.797 21.9384 13.3766 21.0536 15.1579 19.3108C15.7918 18.69 19.947 14.7224 23.1845 11.6342C23.6087 11.2285 23.0759 10.5623 22.5864 10.8875C18.2228 13.7812 12.1728 17.7976 11.4028 18.3208C10.2395 19.1107 9.12235 19.473 7.11692 18.8969C5.60167 18.4617 4.12148 17.9427 3.54535 17.7447C1.32679 16.9829 1.85341 15.9963 4.00804 15.0483Z" fill="white"/>
</svg>
