<svg width="14" height="14" viewBox="0 0 14 14" fill="none" xmlns="http://www.w3.org/2000/svg">
<path d="M4.08334 11.6667C3.59722 11.6667 3.18403 11.4966 2.84375 11.1563C2.50347 10.816 2.33334 10.4028 2.33334 9.91671H1.58959C1.42431 9.91671 1.28567 9.86071 1.17367 9.74871C1.06167 9.63671 1.00586 9.49826 1.00625 9.33337C1.00664 9.16848 1.06264 9.03004 1.17425 8.91804C1.28586 8.80604 1.42431 8.75004 1.58959 8.75004H2.78542C2.9507 8.56532 3.14514 8.42201 3.36875 8.32012C3.59236 8.21823 3.83056 8.1671 4.08334 8.16671C4.33611 8.16632 4.57431 8.21746 4.79792 8.32012C5.02153 8.42279 5.21597 8.5661 5.38125 8.75004H7.81667L9.04167 3.50004H3.35417C3.18889 3.50004 3.05045 3.44404 2.93884 3.33204C2.82722 3.22004 2.77122 3.0816 2.77084 2.91671C2.77045 2.75182 2.82645 2.61337 2.93884 2.50137C3.05122 2.38937 3.18967 2.33337 3.35417 2.33337H9.77084C9.96528 2.33337 10.1208 2.40629 10.2375 2.55212C10.3542 2.69796 10.3882 2.86324 10.3396 3.04796L9.96042 4.66671H11.0833C11.2681 4.66671 11.4431 4.70812 11.6083 4.79096C11.7736 4.87379 11.9097 4.98793 12.0167 5.13337L13.1104 6.57712C13.2174 6.71323 13.2854 6.8616 13.3146 7.02221C13.3438 7.18282 13.3438 7.34557 13.3146 7.51046L12.9208 9.45004C12.8917 9.58615 12.8236 9.69796 12.7167 9.78546C12.6097 9.87296 12.4882 9.91671 12.3521 9.91671H11.6667C11.6667 10.4028 11.4965 10.816 11.1563 11.1563C10.816 11.4966 10.4028 11.6667 9.91667 11.6667C9.43056 11.6667 9.01736 11.4966 8.67709 11.1563C8.33681 10.816 8.16667 10.4028 8.16667 9.91671H5.83334C5.83334 10.4028 5.6632 10.816 5.32292 11.1563C4.98264 11.4966 4.56945 11.6667 4.08334 11.6667ZM9.28959 7.58337H12.1042L12.1625 7.27712L11.0833 5.83337H9.69792L9.28959 7.58337ZM7.84584 8.64796L7.94092 8.22504C8.00392 7.9431 8.08403 7.59796 8.18125 7.18962C8.21042 7.06323 8.23959 6.94657 8.26875 6.83962C8.29792 6.73268 8.32222 6.62574 8.34167 6.51879L8.43675 6.09587C8.49975 5.81393 8.57986 5.46879 8.67709 5.06046C8.77431 4.65212 8.85461 4.30699 8.918 4.02504L9.0125 3.60212L9.04167 3.50004L7.81667 8.75004L7.84584 8.64796ZM1.02084 7.77296C0.855558 7.77296 0.717113 7.71715 0.605502 7.60554C0.493891 7.49393 0.437891 7.35529 0.437502 7.18962C0.437113 7.02396 0.493113 6.88551 0.605502 6.77429C0.717891 6.66307 0.856335 6.60707 1.02084 6.60629H3.0625C3.22778 6.60629 3.36642 6.66229 3.47842 6.77429C3.59042 6.88629 3.64622 7.02473 3.64584 7.18962C3.64545 7.35451 3.58945 7.49315 3.47784 7.60554C3.36622 7.71793 3.22778 7.77373 3.0625 7.77296H1.02084ZM2.1875 5.64379C2.02222 5.64379 1.88378 5.58779 1.77217 5.47579C1.66056 5.36379 1.60456 5.22535 1.60417 5.06046C1.60378 4.89557 1.65978 4.75712 1.77217 4.64512C1.88456 4.53312 2.023 4.47712 2.1875 4.47712H4.8125C4.97778 4.47712 5.11642 4.53312 5.22842 4.64512C5.34042 4.75712 5.39622 4.89557 5.39584 5.06046C5.39545 5.22535 5.33945 5.36398 5.22784 5.47637C5.11622 5.58876 4.97778 5.64457 4.8125 5.64379H2.1875ZM4.08334 10.5C4.24861 10.5 4.38725 10.444 4.49925 10.332C4.61125 10.22 4.66706 10.0816 4.66667 9.91671C4.66628 9.75182 4.61028 9.61337 4.49867 9.50137C4.38706 9.38937 4.24861 9.33337 4.08334 9.33337C3.91806 9.33337 3.77961 9.38937 3.668 9.50137C3.55639 9.61337 3.50039 9.75182 3.5 9.91671C3.49961 10.0816 3.55561 10.2202 3.668 10.3326C3.78039 10.445 3.91884 10.5008 4.08334 10.5ZM9.91667 10.5C10.0819 10.5 10.2206 10.444 10.3326 10.332C10.4446 10.22 10.5004 10.0816 10.5 9.91671C10.4996 9.75182 10.4436 9.61337 10.332 9.50137C10.2204 9.38937 10.0819 9.33337 9.91667 9.33337C9.75139 9.33337 9.61295 9.38937 9.50134 9.50137C9.38972 9.61337 9.33372 9.75182 9.33334 9.91671C9.33295 10.0816 9.38895 10.2202 9.50134 10.3326C9.61372 10.445 9.75217 10.5008 9.91667 10.5Z" fill="black"/>
</svg>
