<svg width="133" height="37" viewBox="0 0 133 37" fill="none" xmlns="http://www.w3.org/2000/svg">
<g clip-path="url(#clip0_319_527)">
<path d="M114.152 0H18.8476C8.43835 0 0 8.28273 0 18.5C0 28.7173 8.43835 37 18.8476 37H114.152C124.562 37 133 28.7173 133 18.5C133 8.28273 124.562 0 114.152 0Z" fill="black"/>
<path d="M21.848 23.0377H19.8553V19.5467L16.543 13.6919H18.7138L20.8451 17.6815H20.8912L23.0291 13.6919H25.167L21.848 19.5467V23.0377ZM31.6069 16.0947V23.0377H29.7462V21.7877H29.7066C29.3371 22.7074 28.6311 23.1672 27.5885 23.1672C26.8143 23.1672 26.1963 22.9362 25.7344 22.4742C25.2725 22.0079 25.0416 21.3731 25.0416 20.57V16.0947H26.9683V20.175C26.9683 20.637 27.0805 20.9889 27.3048 21.2307C27.5335 21.4725 27.8613 21.5934 28.2879 21.5934C28.7147 21.5934 29.0534 21.4552 29.3041 21.1789C29.5548 20.9025 29.6802 20.5334 29.6802 20.0714V16.0947H31.6069ZM34.8599 18.8796L37.2617 16.0947H39.4457L36.747 19.074L39.5777 23.0377H37.3607L35.3349 20.2139L34.8335 20.7449V23.0377H32.9068V13.6919H34.8335V18.8796H34.8599ZM45.4568 15.9846C45.9626 15.9846 46.4047 16.1034 46.783 16.3408C47.1658 16.5783 47.4495 16.9 47.6342 17.3059H47.6739V16.0947H49.5741V25.3045H47.6475V21.8524H47.6079C47.4407 22.241 47.1613 22.5541 46.7699 22.7916C46.3784 23.029 45.9297 23.1477 45.4238 23.1477C44.5396 23.1477 43.8402 22.8261 43.3255 22.1827C42.8109 21.5394 42.5536 20.6629 42.5536 19.5532C42.5536 18.4522 42.8131 17.5822 43.3322 16.9431C43.8556 16.3041 44.5639 15.9846 45.4568 15.9846ZM44.9422 21.0753C45.2193 21.4423 45.5976 21.6257 46.0771 21.6257C46.5565 21.6257 46.9392 21.4401 47.2251 21.0688C47.5111 20.6974 47.654 20.1965 47.654 19.5661C47.654 18.9358 47.5089 18.4349 47.2185 18.0636C46.9326 17.6879 46.5521 17.5002 46.0771 17.5002C45.5976 17.5002 45.2193 17.6858 44.9422 18.0571C44.665 18.4241 44.5265 18.9272 44.5265 19.5661C44.5265 20.2052 44.665 20.7082 44.9422 21.0753ZM56.641 22.2281C56.0119 22.8671 55.1586 23.1866 54.0808 23.1866C53.0031 23.1866 52.1497 22.8649 51.5207 22.2216C50.8916 21.5783 50.5771 20.6909 50.5771 19.5597C50.5771 18.4414 50.8938 17.5606 51.5272 16.9172C52.1651 16.2696 53.0163 15.9457 54.0808 15.9457C55.1497 15.9457 56.0009 16.2696 56.6344 16.9172C57.2678 17.5606 57.5845 18.4414 57.5845 19.5597C57.5845 20.6953 57.27 21.5847 56.641 22.2281ZM54.0808 21.7423C54.5559 21.7423 54.932 21.5524 55.2091 21.1724C55.4862 20.7925 55.6248 20.257 55.6248 19.5661C55.6248 18.884 55.4862 18.3507 55.2091 17.9664C54.932 17.5822 54.5559 17.3901 54.0808 17.3901C53.6057 17.3901 53.2274 17.5822 52.9459 17.9664C52.6688 18.3507 52.5302 18.884 52.5302 19.5661C52.5302 20.257 52.6688 20.7925 52.9459 21.1724C53.223 21.5524 53.6013 21.7423 54.0808 21.7423ZM59.663 17.3382H58.2245L58.7194 13.6919H60.5472L59.663 17.3382ZM60.9563 18.1349C60.9563 17.4743 61.2268 16.9453 61.7679 16.5481C62.3089 16.1465 63.0325 15.9457 63.9387 15.9457C64.8229 15.9457 65.5333 16.1487 66.07 16.5546C66.6067 16.9604 66.8815 17.5002 66.8948 18.1737H65.1198C65.0978 17.893 64.9791 17.6729 64.7635 17.5131C64.5523 17.3533 64.2686 17.2735 63.9123 17.2735C63.578 17.2735 63.3097 17.3425 63.1073 17.4807C62.9094 17.6146 62.8104 17.7937 62.8104 18.0183C62.8104 18.3551 63.1183 18.5947 63.7341 18.7371L65.0868 19.0221C65.7951 19.1776 66.3031 19.4043 66.611 19.7022C66.9234 19.9958 67.0795 20.4016 67.0795 20.9198C67.0795 21.602 66.7892 22.1504 66.2085 22.5649C65.6279 22.9794 64.8691 23.1866 63.9321 23.1866C62.9996 23.1866 62.2539 22.9837 61.6953 22.5778C61.1366 22.1719 60.8309 21.6257 60.7781 20.9392H62.6586C62.7071 21.2328 62.8434 21.4595 63.0677 21.6193C63.2965 21.779 63.6022 21.8589 63.9849 21.8589C64.35 21.8589 64.6359 21.7942 64.8427 21.6646C65.0538 21.5308 65.1594 21.3494 65.1594 21.1206C65.1594 20.9435 65.0934 20.8032 64.9614 20.6996C64.8295 20.5917 64.6051 20.501 64.2884 20.4275L62.9819 20.1426C61.6315 19.8404 60.9563 19.1711 60.9563 18.1349ZM68.0891 23.0377V13.6919H69.9828V17.3318H70.0223C70.2115 16.8913 70.4952 16.5546 70.8735 16.3214C71.2566 16.0839 71.7139 15.9651 72.2459 15.9651C73.0247 15.9651 73.6293 16.1983 74.0603 16.6646C74.4963 17.1267 74.7139 17.7614 74.7139 18.5688V23.0377H72.7872V18.9703C72.7872 18.517 72.6727 18.165 72.4437 17.9146C72.2196 17.6599 71.8917 17.5325 71.4607 17.5325C71.0121 17.5325 70.658 17.675 70.3984 17.96C70.1433 18.2406 70.0158 18.612 70.0158 19.074V23.0377H68.0891ZM75.9806 23.0377V16.0947H77.9073V23.0377H75.9806ZM77.6762 15.0455C77.4784 15.2355 77.2345 15.3305 76.9443 15.3305C76.6534 15.3305 76.4095 15.2355 76.2118 15.0455C76.0133 14.8555 75.9145 14.6245 75.9145 14.3525C75.9145 14.0761 76.0133 13.8452 76.2118 13.6595C76.4095 13.4695 76.6534 13.3745 76.9443 13.3745C77.2345 13.3745 77.4784 13.4695 77.6762 13.6595C77.8746 13.8452 77.9735 14.0761 77.9735 14.3525C77.9735 14.6245 77.8746 14.8555 77.6762 15.0455ZM79.0752 18.1349C79.0752 17.4743 79.3461 16.9453 79.8867 16.5481C80.4279 16.1465 81.1512 15.9457 82.0581 15.9457C82.9421 15.9457 83.6526 16.1487 84.1889 16.5546C84.7259 16.9604 85.0004 17.5002 85.0139 18.1737H83.2387C83.2167 17.893 83.0979 17.6729 82.8824 17.5131C82.6711 17.3533 82.3874 17.2735 82.031 17.2735C81.6968 17.2735 81.4286 17.3425 81.2266 17.4807C81.0282 17.6146 80.9293 17.7937 80.9293 18.0183C80.9293 18.3551 81.2373 18.5947 81.8532 18.7371L83.206 19.0221C83.9144 19.1776 84.4222 19.4043 84.7302 19.7022C85.0424 19.9958 85.1989 20.4016 85.1989 20.9198C85.1989 21.602 84.908 22.1504 84.3276 22.5649C83.7472 22.9794 82.9883 23.1866 82.0509 23.1866C81.1185 23.1866 80.3732 22.9837 79.8141 22.5778C79.2558 22.1719 78.95 21.6257 78.8974 20.9392H80.7778C80.8262 21.2328 80.9621 21.4595 81.1868 21.6193C81.4158 21.779 81.7209 21.8589 82.1036 21.8589C82.4692 21.8589 82.7551 21.7942 82.962 21.6646C83.1726 21.5308 83.2785 21.3494 83.2785 21.1206C83.2785 20.9435 83.2124 20.8032 83.0801 20.6996C82.9485 20.5917 82.7245 20.501 82.4073 20.4275L81.1007 20.1426C79.7508 19.8404 79.0752 19.1711 79.0752 18.1349ZM86.2081 23.0377V13.6919H88.1021V17.3318H88.1412C88.3304 16.8913 88.6142 16.5546 88.9926 16.3214C89.3752 16.0839 89.8325 15.9651 90.3652 15.9651C91.1433 15.9651 91.7486 16.1983 92.1796 16.6646C92.6149 17.1267 92.8325 17.7614 92.8325 18.5688V23.0377H90.9058V18.9703C90.9058 18.517 90.792 18.165 90.5629 17.9146C90.3389 17.6599 90.011 17.5325 89.58 17.5325C89.1312 17.5325 88.7771 17.675 88.5175 17.96C88.2621 18.2406 88.1348 18.612 88.1348 19.074V23.0377H86.2081Z" fill="white"/>
<path d="M118.035 19.3416H112.879V24.403H111.16V19.3416H106.003V17.6546H111.16V12.5933H112.879V17.6546H118.035V19.3416Z" fill="white"/>
</g>
<defs>
<clipPath id="clip0_319_527">
<rect width="133" height="37" fill="white"/>
</clipPath>
</defs>
</svg>
