<svg width="187" height="53" viewBox="0 0 187 53" fill="none" xmlns="http://www.w3.org/2000/svg">
<rect width="187" height="53" rx="26.5" fill="black"/>
<path d="M30.7188 33H27.917V27.9995L23.2598 19.6128H26.312L29.3086 25.3276H29.3735L32.3794 19.6128H35.3853L30.7188 27.9995V33ZM44.4399 23.0547V33H41.8237V31.2095H41.7681C41.2485 32.5269 40.2559 33.1855 38.79 33.1855C37.7015 33.1855 36.8325 32.8547 36.1831 32.1929C35.5337 31.5249 35.209 30.6157 35.209 29.4653V23.0547H37.918V28.8994C37.918 29.5612 38.0757 30.0653 38.3911 30.4116C38.7127 30.758 39.1735 30.9312 39.7734 30.9312C40.3734 30.9312 40.8496 30.7332 41.2021 30.3374C41.5547 29.9416 41.731 29.4128 41.731 28.751V23.0547H44.4399ZM49.0137 27.0439L52.3906 23.0547H55.4614L51.667 27.3223L55.647 33H52.5298L49.6816 28.9551L48.9766 29.7158V33H46.2676V19.6128H48.9766V27.0439H49.0137ZM63.9131 22.897C64.6243 22.897 65.2459 23.0671 65.7778 23.4072C66.3159 23.7474 66.7148 24.2082 66.9746 24.7896H67.0303V23.0547H69.7021V36.2471H66.9932V31.3022H66.9375C66.7025 31.8589 66.3097 32.3073 65.7593 32.6475C65.2088 32.9876 64.578 33.1577 63.8667 33.1577C62.6235 33.1577 61.6401 32.6969 60.9165 31.7754C60.1929 30.8538 59.8311 29.5983 59.8311 28.0088C59.8311 26.4316 60.196 25.1854 60.9258 24.27C61.6618 23.3547 62.6576 22.897 63.9131 22.897ZM63.1895 30.189C63.5791 30.7147 64.111 30.9775 64.7852 30.9775C65.4593 30.9775 65.9974 30.7116 66.3994 30.1797C66.8014 29.6478 67.0024 28.9303 67.0024 28.0273C67.0024 27.1243 66.7983 26.4069 66.3901 25.875C65.9881 25.3369 65.4531 25.0679 64.7852 25.0679C64.111 25.0679 63.5791 25.3338 63.1895 25.8657C62.7998 26.3914 62.605 27.112 62.605 28.0273C62.605 28.9427 62.7998 29.6632 63.1895 30.189ZM79.6382 31.8403C78.7537 32.7557 77.5539 33.2134 76.0386 33.2134C74.5233 33.2134 73.3234 32.7526 72.439 31.8311C71.5545 30.9095 71.1123 29.6385 71.1123 28.0181C71.1123 26.4162 71.5576 25.1545 72.4482 24.2329C73.3451 23.3052 74.5418 22.8413 76.0386 22.8413C77.5415 22.8413 78.7383 23.3052 79.6289 24.2329C80.5195 25.1545 80.9648 26.4162 80.9648 28.0181C80.9648 29.6447 80.5226 30.9188 79.6382 31.8403ZM76.0386 31.1445C76.7065 31.1445 77.2354 30.8724 77.625 30.3281C78.0146 29.7839 78.2095 29.0169 78.2095 28.0273C78.2095 27.0501 78.0146 26.2863 77.625 25.7358C77.2354 25.1854 76.7065 24.9102 76.0386 24.9102C75.3706 24.9102 74.8387 25.1854 74.4429 25.7358C74.0532 26.2863 73.8584 27.0501 73.8584 28.0273C73.8584 29.0169 74.0532 29.7839 74.4429 30.3281C74.8325 30.8724 75.3644 31.1445 76.0386 31.1445ZM83.8872 24.8359H81.8647L82.5605 19.6128H85.1304L83.8872 24.8359ZM85.7056 25.9771C85.7056 25.0308 86.0859 24.2731 86.8467 23.7041C87.6074 23.1289 88.6248 22.8413 89.8989 22.8413C91.1421 22.8413 92.141 23.132 92.8955 23.7134C93.6501 24.2948 94.0366 25.0679 94.0552 26.0327H91.5596C91.5286 25.6307 91.3617 25.3153 91.0586 25.0864C90.7617 24.8576 90.3628 24.7432 89.8618 24.7432C89.3918 24.7432 89.0145 24.8421 88.73 25.04C88.4517 25.2318 88.3125 25.4884 88.3125 25.8101C88.3125 26.2925 88.7454 26.6357 89.6113 26.8398L91.5132 27.248C92.509 27.4707 93.2233 27.7954 93.6562 28.2222C94.0954 28.6427 94.3149 29.2241 94.3149 29.9663C94.3149 30.9435 93.9067 31.729 93.0903 32.3228C92.2739 32.9165 91.207 33.2134 89.8896 33.2134C88.5785 33.2134 87.5301 32.9227 86.7446 32.3413C85.9591 31.7599 85.5293 30.9775 85.4551 29.9941H88.0991C88.1672 30.4147 88.3589 30.7394 88.6743 30.9683C88.9959 31.1971 89.4258 31.3115 89.9639 31.3115C90.4772 31.3115 90.8792 31.2188 91.1699 31.0332C91.4668 30.8415 91.6152 30.5817 91.6152 30.2539C91.6152 30.0003 91.5225 29.7993 91.3369 29.6509C91.1514 29.4963 90.8359 29.3664 90.3906 29.2612L88.5537 28.853C86.6549 28.4201 85.7056 27.4614 85.7056 25.9771ZM95.7344 33V19.6128H98.397V24.8267H98.4526C98.7186 24.1958 99.1175 23.7134 99.6494 23.3794C100.188 23.0392 100.831 22.8691 101.579 22.8691C102.674 22.8691 103.524 23.2031 104.13 23.8711C104.743 24.5329 105.049 25.4421 105.049 26.5986V33H102.34V27.1738C102.34 26.5244 102.179 26.0203 101.857 25.6616C101.542 25.2967 101.081 25.1143 100.475 25.1143C99.8442 25.1143 99.3464 25.3184 98.9814 25.7266C98.6227 26.1286 98.4434 26.6605 98.4434 27.3223V33H95.7344ZM106.83 33V23.0547H109.539V33H106.83ZM109.214 21.5518C108.936 21.8239 108.593 21.96 108.185 21.96C107.776 21.96 107.433 21.8239 107.155 21.5518C106.876 21.2796 106.737 20.9487 106.737 20.5591C106.737 20.1632 106.876 19.8324 107.155 19.5664C107.433 19.2943 107.776 19.1582 108.185 19.1582C108.593 19.1582 108.936 19.2943 109.214 19.5664C109.493 19.8324 109.632 20.1632 109.632 20.5591C109.632 20.9487 109.493 21.2796 109.214 21.5518ZM111.181 25.9771C111.181 25.0308 111.562 24.2731 112.322 23.7041C113.083 23.1289 114.1 22.8413 115.375 22.8413C116.618 22.8413 117.617 23.132 118.371 23.7134C119.126 24.2948 119.512 25.0679 119.531 26.0327H117.035C117.004 25.6307 116.837 25.3153 116.534 25.0864C116.237 24.8576 115.838 24.7432 115.337 24.7432C114.867 24.7432 114.49 24.8421 114.206 25.04C113.927 25.2318 113.788 25.4884 113.788 25.8101C113.788 26.2925 114.221 26.6357 115.087 26.8398L116.989 27.248C117.985 27.4707 118.699 27.7954 119.132 28.2222C119.571 28.6427 119.791 29.2241 119.791 29.9663C119.791 30.9435 119.382 31.729 118.566 32.3228C117.75 32.9165 116.683 33.2134 115.365 33.2134C114.054 33.2134 113.006 32.9227 112.22 32.3413C111.435 31.7599 111.005 30.9775 110.931 29.9941H113.575C113.643 30.4147 113.834 30.7394 114.15 30.9683C114.472 31.1971 114.901 31.3115 115.439 31.3115C115.953 31.3115 116.355 31.2188 116.646 31.0332C116.942 30.8415 117.091 30.5817 117.091 30.2539C117.091 30.0003 116.998 29.7993 116.812 29.6509C116.627 29.4963 116.312 29.3664 115.866 29.2612L114.029 28.853C112.131 28.4201 111.181 27.4614 111.181 25.9771ZM121.21 33V19.6128H123.873V24.8267H123.928C124.194 24.1958 124.593 23.7134 125.125 23.3794C125.663 23.0392 126.306 22.8691 127.055 22.8691C128.149 22.8691 129 23.2031 129.606 23.8711C130.218 24.5329 130.524 25.4421 130.524 26.5986V33H127.815V27.1738C127.815 26.5244 127.655 26.0203 127.333 25.6616C127.018 25.2967 126.557 25.1143 125.951 25.1143C125.32 25.1143 124.822 25.3184 124.457 25.7266C124.098 26.1286 123.919 26.6605 123.919 27.3223V33H121.21Z" fill="white"/>
<path d="M165.959 27.7057H158.709V34.9557H156.292V27.7057H149.042V25.2891H156.292V18.0391H158.709V25.2891H165.959V27.7057Z" fill="white"/>
</svg>
