<svg width="28" height="29" viewBox="0 0 28 29" fill="none" xmlns="http://www.w3.org/2000/svg">
<path d="M14.8606 2.56879C14.6204 2.36443 14.3154 2.25222 14 2.25222C13.6846 2.25222 13.3796 2.36443 13.1394 2.56879L2.78 11.3748C2.63332 11.4996 2.51554 11.6548 2.43481 11.8296C2.35409 12.0045 2.31235 12.1948 2.3125 12.3874V26.1563C2.3125 26.2972 2.36847 26.4323 2.4681 26.5319C2.56773 26.6316 2.70285 26.6875 2.84375 26.6875H8.15625C8.29715 26.6875 8.43227 26.6316 8.5319 26.5319C8.63153 26.4323 8.6875 26.2972 8.6875 26.1563V18.7188C8.6875 18.0143 8.96735 17.3387 9.4655 16.8405C9.96364 16.3424 10.6393 16.0625 11.3438 16.0625H16.6605C17.0093 16.0625 17.3547 16.1312 17.677 16.2647C17.9993 16.3982 18.2921 16.5939 18.5388 16.8405C18.7854 17.0872 18.9811 17.38 19.1146 17.7023C19.248 18.0246 19.3167 18.37 19.3167 18.7188V26.1563C19.3167 26.2972 19.3727 26.4323 19.4723 26.5319C19.572 26.6316 19.7071 26.6875 19.848 26.6875H25.1562C25.2971 26.6875 25.4323 26.6316 25.5319 26.5319C25.6315 26.4323 25.6875 26.2972 25.6875 26.1563V12.3863C25.6875 12.1939 25.6457 12.0038 25.565 11.8291C25.4842 11.6545 25.3665 11.4995 25.22 11.3748L14.8606 2.56879ZM11.7634 0.9506C12.3878 0.419842 13.1805 0.128418 14 0.128418C14.8195 0.128418 15.6122 0.419842 16.2366 0.9506L26.5959 9.75554C26.9772 10.0797 27.2835 10.4828 27.4936 10.9371C27.7037 11.3913 27.8125 11.8858 27.8125 12.3863V26.1563C27.8125 26.8608 27.5326 27.5364 27.0345 28.0345C26.5364 28.5327 25.8607 28.8125 25.1562 28.8125H19.848C19.1435 28.8125 18.4679 28.5327 17.9697 28.0345C17.4716 27.5364 17.1917 26.8608 17.1917 26.1563V18.7188C17.1917 18.5779 17.1358 18.4428 17.0361 18.3431C16.9365 18.2435 16.8014 18.1875 16.6605 18.1875H11.3438C11.2029 18.1875 11.0677 18.2435 10.9681 18.3431C10.8685 18.4428 10.8125 18.5779 10.8125 18.7188V26.1563C10.8125 26.8608 10.5326 27.5364 10.0345 28.0345C9.53636 28.5327 8.86073 28.8125 8.15625 28.8125H2.84375C2.13927 28.8125 1.46364 28.5327 0.965498 28.0345C0.467354 27.5364 0.1875 26.8608 0.1875 26.1563V12.3863C0.187528 11.8858 0.296341 11.3913 0.506403 10.9371C0.716465 10.4828 1.02276 10.0797 1.40406 9.75554L11.7634 0.9506Z" fill="black"/>
</svg>
