<svg width="25" height="26" viewBox="0 0 25 26" fill="none" xmlns="http://www.w3.org/2000/svg">
<path d="M0 23.0286V9.65714C0 9.18666 0.110937 8.74095 0.332812 8.32C0.554687 7.89905 0.860417 7.55238 1.25 7.28L10.625 0.594286C11.1719 0.198095 11.7969 0 12.5 0C13.2031 0 13.8281 0.198095 14.375 0.594286L23.75 7.28C24.1406 7.55238 24.4469 7.89905 24.6687 8.32C24.8906 8.74095 25.001 9.18666 25 9.65714V23.0286C25 23.8457 24.6937 24.5455 24.0812 25.1279C23.4687 25.7103 22.7333 26.001 21.875 26H17.1875C16.7448 26 16.374 25.8574 16.075 25.5721C15.776 25.2869 15.626 24.9342 15.625 24.5143V17.0857C15.625 16.6648 15.475 16.3121 15.175 16.0279C14.875 15.7436 14.5042 15.601 14.0625 15.6H10.9375C10.4948 15.6 10.124 15.7426 9.825 16.0279C9.52604 16.3131 9.37604 16.6657 9.375 17.0857V24.5143C9.375 24.9352 9.225 25.2883 8.925 25.5736C8.625 25.8589 8.25416 26.001 7.8125 26H3.125C2.26562 26 1.53021 25.7093 0.91875 25.1279C0.307291 24.5465 0.00104167 23.8467 0 23.0286Z" fill="black"/>
</svg>
