<svg width="25" height="26" viewBox="0 0 25 26" fill="none" xmlns="http://www.w3.org/2000/svg">
<path d="M13.2788 2.21201C13.0615 2.02678 12.7854 1.92506 12.5 1.92506C12.2146 1.92506 11.9385 2.02678 11.7212 2.21201L2.34615 10.194C2.21342 10.3071 2.10682 10.4478 2.03377 10.6063C1.96071 10.7647 1.92294 10.9372 1.92308 11.1118V23.5923C1.92308 23.72 1.97373 23.8425 2.06389 23.9328C2.15405 24.0231 2.27634 24.0738 2.40385 24.0738H7.21154C7.33905 24.0738 7.46133 24.0231 7.55149 23.9328C7.64166 23.8425 7.69231 23.72 7.69231 23.5923V16.8508C7.69231 16.2122 7.94557 15.5998 8.39638 15.1483C8.84719 14.6967 9.45861 14.4431 10.0962 14.4431H14.9077C15.2234 14.4431 15.536 14.5054 15.8276 14.6264C16.1193 14.7474 16.3842 14.9247 16.6075 15.1483C16.8307 15.3719 17.0078 15.6373 17.1286 15.9294C17.2494 16.2215 17.3115 16.5346 17.3115 16.8508V23.5923C17.3115 23.72 17.3622 23.8425 17.4524 23.9328C17.5425 24.0231 17.6648 24.0738 17.7923 24.0738H22.5962C22.7237 24.0738 22.8459 24.0231 22.9361 23.9328C23.0263 23.8425 23.0769 23.72 23.0769 23.5923V11.1108C23.0769 10.9364 23.0391 10.7641 22.966 10.6058C22.893 10.4475 22.7865 10.307 22.6538 10.194L13.2788 2.21201ZM10.476 0.745246C11.041 0.264154 11.7584 0 12.5 0C13.2416 0 13.959 0.264154 14.524 0.745246L23.899 8.72626C24.2441 9.02008 24.5213 9.38551 24.7114 9.79725C24.9015 10.209 25 10.6572 25 11.1108V23.5923C25 24.2309 24.7467 24.8433 24.2959 25.2948C23.8451 25.7463 23.2337 26 22.5962 26H17.7923C17.1548 26 16.5433 25.7463 16.0925 25.2948C15.6417 24.8433 15.3885 24.2309 15.3885 23.5923V16.8508C15.3885 16.7231 15.3378 16.6006 15.2476 16.5103C15.1575 16.42 15.0352 16.3692 14.9077 16.3692H10.0962C9.96865 16.3692 9.84636 16.42 9.7562 16.5103C9.66604 16.6006 9.61538 16.7231 9.61538 16.8508V23.5923C9.61538 24.2309 9.36212 24.8433 8.91131 25.2948C8.46051 25.7463 7.84908 26 7.21154 26H2.40385C1.76631 26 1.15488 25.7463 0.70407 25.2948C0.253262 24.8433 0 24.2309 0 23.5923V11.1108C2.5299e-05 10.6572 0.0984985 10.209 0.2886 9.79725C0.478701 9.38551 0.755888 9.02008 1.10096 8.72626L10.476 0.745246Z" fill="black"/>
</svg>
