<svg width="28" height="30" viewBox="0 0 28 30" fill="none" xmlns="http://www.w3.org/2000/svg">
<path d="M0 26.4792V11.1042C0 10.5632 0.121291 10.0507 0.363875 9.56667C0.606458 9.08264 0.940723 8.68403 1.36667 8.37083L11.6167 0.683334C12.2146 0.227778 12.8979 0 13.6667 0C14.4354 0 15.1187 0.227778 15.7167 0.683334L25.9667 8.37083C26.3938 8.68403 26.7286 9.08264 26.9712 9.56667C27.2138 10.0507 27.3345 10.5632 27.3333 11.1042V26.4792C27.3333 27.4188 26.9985 28.2234 26.3288 28.893C25.6592 29.5627 24.8551 29.897 23.9167 29.8958H18.7917C18.3076 29.8958 17.9022 29.7318 17.5753 29.4038C17.2485 29.0758 17.0845 28.6704 17.0833 28.1875V19.6458C17.0833 19.1618 16.9193 18.7564 16.5913 18.4295C16.2633 18.1026 15.8579 17.9386 15.375 17.9375H11.9583C11.4743 17.9375 11.0689 18.1015 10.742 18.4295C10.4151 18.7575 10.2511 19.1629 10.25 19.6458V28.1875C10.25 28.6715 10.086 29.0775 9.758 29.4055C9.43 29.7335 9.02456 29.897 8.54167 29.8958H3.41667C2.47708 29.8958 1.67303 29.5616 1.0045 28.893C0.335972 28.2245 0.00113889 27.4199 0 26.4792Z" fill="black"/>
</svg>
