<svg width="25" height="24" viewBox="0 0 25 24" fill="none" xmlns="http://www.w3.org/2000/svg">
<g clip-path="url(#clip0_0_700)">
<path d="M23.9867 4.83428C23.5353 2.79615 21.5595 0.929122 19.5158 0.53256C18.2708 0.283654 14.7973 -0.0238463 12.5 0.00146616C10.2027 -0.0238463 6.72922 0.283654 5.48422 0.53256C3.44047 0.929122 1.46469 2.79615 1.01328 4.83428C0.756406 6.07178 0.50375 7.75553 0.5 10.0538C0.50375 12.3521 0.756406 14.0354 1.01328 15.2729C1.46469 17.311 3.44047 19.178 5.48422 19.5746C6.15641 19.7091 7.47828 19.8605 8.91406 19.9674C9.07672 20.2229 9.25297 20.4947 9.44375 20.783C10.2055 21.9366 10.7886 22.7405 11.2302 23.3007C11.9652 24.233 13.0353 24.233 13.7703 23.3007C14.2119 22.7405 14.7945 21.9366 15.5567 20.783C15.7475 20.4943 15.9233 20.2229 16.0864 19.9674C17.5222 19.8605 18.8441 19.7091 19.5167 19.5746C21.5605 19.178 23.5363 17.311 23.9877 15.2729C24.2445 14.0354 24.4972 12.3521 24.5009 10.0538C24.4972 7.75553 24.2445 6.07225 23.9877 4.83475L23.9867 4.83428ZM13.8252 17.0218C13.7745 17.3072 13.5158 17.566 13.2303 17.6166C13.0573 17.6452 12.8216 17.6724 12.4995 17.6729C12.178 17.6729 11.9422 17.6457 11.7687 17.6166C11.4833 17.566 11.2245 17.3072 11.1739 17.0218C11.1453 16.8488 11.1181 16.613 11.1177 16.291C11.1177 15.9694 11.1448 15.7337 11.1739 15.5602C11.2245 15.2747 11.4833 15.016 11.7687 14.9654C11.9417 14.9368 12.1775 14.9096 12.4995 14.9091C12.8211 14.9091 13.0569 14.9363 13.2303 14.9654C13.5158 15.016 13.7745 15.2747 13.8252 15.5602C13.8537 15.7332 13.8809 15.969 13.8814 16.291C13.8814 16.6126 13.8542 16.8483 13.8252 17.0218ZM16.6789 9.34412C16.317 9.856 15.7747 10.3233 14.9722 10.8141C13.9564 11.4404 13.7938 11.6977 13.7938 12.2016V12.4008C13.7938 13.1152 13.2125 13.6965 12.4981 13.6965C11.7838 13.6965 11.2025 13.1152 11.2025 12.4008V11.9391C11.2025 11.3447 11.3511 10.8404 11.6567 10.3974C11.953 9.96803 12.3969 9.58647 13.0555 9.19506C14.2691 8.48115 14.4913 8.08037 14.4913 7.54834C14.4913 6.8799 13.9217 6.44772 13.0409 6.44772C12.0753 6.44772 11.4467 6.88647 11.1725 7.75225C10.9916 8.32318 10.4628 8.70662 9.85719 8.70662C9.82344 8.70662 9.78969 8.70522 9.75594 8.70287C9.32844 8.67194 8.94547 8.45022 8.70547 8.09443C8.46781 7.7424 8.40547 7.30975 8.53437 6.90709C8.82969 5.98647 9.39594 5.22053 10.1717 4.69178C10.9573 4.15647 11.9497 3.87381 13.0405 3.87381C14.1313 3.87381 15.2248 4.23522 16.0011 4.89147C16.7998 5.56694 17.24 6.49787 17.24 7.51365C17.24 8.21115 17.0567 8.81022 16.6789 9.34412Z" fill="#D2D2D2"/>
</g>
<defs>
<clipPath id="clip0_0_700">
<rect width="24" height="24" fill="white" transform="translate(0.5)"/>
</clipPath>
</defs>
</svg>
