<svg width="25" height="24" viewBox="0 0 25 24" fill="none" xmlns="http://www.w3.org/2000/svg">
<g clip-path="url(#clip0_109_650)">
<path d="M7.17725 20C6.34392 20 5.63558 19.7083 5.05225 19.125C4.46892 18.5417 4.17725 17.8333 4.17725 17H2.90225C2.61892 17 2.38125 16.904 2.18925 16.712C1.99725 16.52 1.90158 16.2827 1.90225 16C1.90292 15.7173 1.99892 15.48 2.19025 15.288C2.38158 15.096 2.61892 15 2.90225 15H4.95225C5.23558 14.6833 5.56892 14.4377 5.95225 14.263C6.33558 14.0883 6.74392 14.0007 7.17725 14C7.61058 13.9993 8.01892 14.087 8.40225 14.263C8.78558 14.439 9.11892 14.6847 9.40225 15H13.5772L15.6772 6H5.92725C5.64392 6 5.40658 5.904 5.21525 5.712C5.02392 5.52 4.92792 5.28267 4.92725 5C4.92658 4.71733 5.02258 4.48 5.21525 4.288C5.40792 4.096 5.64525 4 5.92725 4H16.9272C17.2606 4 17.5272 4.125 17.7272 4.375C17.9272 4.625 17.9856 4.90833 17.9023 5.225L17.2523 8H19.1772C19.4939 8 19.7939 8.071 20.0772 8.213C20.3606 8.355 20.5939 8.55067 20.7773 8.8L22.6523 11.275C22.8356 11.5083 22.9523 11.7627 23.0023 12.038C23.0522 12.3133 23.0522 12.5923 23.0023 12.875L22.3272 16.2C22.2773 16.4333 22.1606 16.625 21.9772 16.775C21.7939 16.925 21.5856 17 21.3522 17H20.1772C20.1772 17.8333 19.8856 18.5417 19.3022 19.125C18.7189 19.7083 18.0106 20 17.1772 20C16.3439 20 15.6356 19.7083 15.0522 19.125C14.4689 18.5417 14.1772 17.8333 14.1772 17H10.1772C10.1772 17.8333 9.88558 18.5417 9.30225 19.125C8.71892 19.7083 8.01058 20 7.17725 20ZM16.1023 13H20.9272L21.0273 12.475L19.1772 10H16.8022L16.1023 13ZM13.6272 14.825L13.7902 14.1C13.8982 13.6167 14.0356 13.025 14.2022 12.325C14.2522 12.1083 14.3022 11.9083 14.3523 11.725C14.4023 11.5417 14.4439 11.3583 14.4773 11.175L14.6403 10.45C14.7483 9.96667 14.8856 9.375 15.0522 8.675C15.2189 7.975 15.3566 7.38333 15.4653 6.9L15.6272 6.175L15.6772 6L13.5772 15L13.6272 14.825ZM1.92725 13.325C1.64392 13.325 1.40658 13.2293 1.21525 13.038C1.02392 12.8467 0.927916 12.609 0.92725 12.325C0.926583 12.041 1.02258 11.8037 1.21525 11.613C1.40792 11.4223 1.64525 11.3263 1.92725 11.325H5.42725C5.71058 11.325 5.94825 11.421 6.14025 11.613C6.33225 11.805 6.42792 12.0423 6.42725 12.325C6.42658 12.6077 6.33058 12.8453 6.13925 13.038C5.94792 13.2307 5.71058 13.3263 5.42725 13.325H1.92725ZM3.92725 9.675C3.64392 9.675 3.40658 9.579 3.21525 9.387C3.02392 9.195 2.92792 8.95767 2.92725 8.675C2.92658 8.39233 3.02258 8.155 3.21525 7.963C3.40792 7.771 3.64525 7.675 3.92725 7.675H8.42725C8.71058 7.675 8.94825 7.771 9.14025 7.963C9.33225 8.155 9.42792 8.39233 9.42725 8.675C9.42658 8.95767 9.33058 9.19533 9.13925 9.388C8.94792 9.58067 8.71058 9.67633 8.42725 9.675H3.92725ZM7.17725 18C7.46058 18 7.69825 17.904 7.89025 17.712C8.08225 17.52 8.17792 17.2827 8.17725 17C8.17658 16.7173 8.08058 16.48 7.88925 16.288C7.69792 16.096 7.46058 16 7.17725 16C6.89392 16 6.65658 16.096 6.46525 16.288C6.27392 16.48 6.17792 16.7173 6.17725 17C6.17658 17.2827 6.27258 17.5203 6.46525 17.713C6.65792 17.9057 6.89525 18.0013 7.17725 18ZM17.1772 18C17.4606 18 17.6982 17.904 17.8902 17.712C18.0822 17.52 18.1779 17.2827 18.1772 17C18.1766 16.7173 18.0806 16.48 17.8892 16.288C17.6979 16.096 17.4606 16 17.1772 16C16.8939 16 16.6566 16.096 16.4653 16.288C16.2739 16.48 16.1779 16.7173 16.1772 17C16.1766 17.2827 16.2726 17.5203 16.4653 17.713C16.6579 17.9057 16.8953 18.0013 17.1772 18Z" fill="black"/>
</g>
<defs>
<clipPath id="clip0_109_650">
<rect width="24" height="24" fill="white" transform="translate(0.177246)"/>
</clipPath>
</defs>
</svg>
