<svg width="16" height="16" viewBox="0 0 16 16" fill="none" xmlns="http://www.w3.org/2000/svg">
<path d="M4.66667 13.3333C4.11111 13.3333 3.63889 13.1388 3.25 12.75C2.86111 12.3611 2.66667 11.8888 2.66667 11.3333H1.81667C1.62778 11.3333 1.46934 11.2693 1.34134 11.1413C1.21334 11.0133 1.14956 10.8551 1.15 10.6666C1.15045 10.4782 1.21445 10.32 1.342 10.192C1.46956 10.064 1.62778 9.99996 1.81667 9.99996H3.18334C3.37222 9.78885 3.59445 9.62507 3.85 9.50863C4.10556 9.39218 4.37778 9.33374 4.66667 9.33329C4.95556 9.33285 5.22778 9.39129 5.48334 9.50863C5.73889 9.62596 5.96111 9.78974 6.15 9.99996H8.93334L10.3333 3.99996H3.83334C3.64445 3.99996 3.48622 3.93596 3.35867 3.80796C3.23111 3.67996 3.16711 3.52174 3.16667 3.33329C3.16622 3.14485 3.23022 2.98663 3.35867 2.85863C3.48711 2.73063 3.64534 2.66663 3.83334 2.66663H11.1667C11.3889 2.66663 11.5667 2.74996 11.7 2.91663C11.8333 3.08329 11.8722 3.27218 11.8167 3.48329L11.3833 5.33329H12.6667C12.8778 5.33329 13.0778 5.38063 13.2667 5.47529C13.4556 5.56996 13.6111 5.7004 13.7333 5.86663L14.9833 7.51663C15.1056 7.67218 15.1833 7.84174 15.2167 8.02529C15.25 8.20885 15.25 8.39485 15.2167 8.58329L14.7667 10.8C14.7333 10.9555 14.6556 11.0833 14.5333 11.1833C14.4111 11.2833 14.2722 11.3333 14.1167 11.3333H13.3333C13.3333 11.8888 13.1389 12.3611 12.75 12.75C12.3611 13.1388 11.8889 13.3333 11.3333 13.3333C10.7778 13.3333 10.3056 13.1388 9.91667 12.75C9.52778 12.3611 9.33334 11.8888 9.33334 11.3333H6.66667C6.66667 11.8888 6.47222 12.3611 6.08334 12.75C5.69445 13.1388 5.22222 13.3333 4.66667 13.3333ZM10.6167 8.66663H13.8333L13.9 8.31663L12.6667 6.66663H11.0833L10.6167 8.66663ZM8.96667 9.88329L9.07534 9.39996C9.14734 9.07774 9.23889 8.68329 9.35 8.21663C9.38334 8.07218 9.41667 7.93885 9.45 7.81663C9.48334 7.6944 9.51111 7.57218 9.53334 7.44996L9.642 6.96663C9.714 6.6444 9.80556 6.24996 9.91667 5.78329C10.0278 5.31663 10.1196 4.92218 10.192 4.59996L10.3 4.11663L10.3333 3.99996L8.93334 9.99996L8.96667 9.88329ZM1.16667 8.88329C0.97778 8.88329 0.819558 8.81952 0.692002 8.69196C0.564447 8.5644 0.500447 8.40596 0.500002 8.21663C0.499558 8.02729 0.563558 7.86907 0.692002 7.74196C0.820447 7.61485 0.978669 7.55085 1.16667 7.54996H3.5C3.68889 7.54996 3.84734 7.61396 3.97534 7.74196C4.10334 7.86996 4.16711 8.02818 4.16667 8.21663C4.16622 8.40507 4.10222 8.56352 3.97467 8.69196C3.84711 8.8204 3.68889 8.88418 3.5 8.88329H1.16667ZM2.5 6.44996C2.31111 6.44996 2.15289 6.38596 2.02534 6.25796C1.89778 6.12996 1.83378 5.97174 1.83334 5.78329C1.83289 5.59485 1.89689 5.43663 2.02534 5.30863C2.15378 5.18063 2.312 5.11663 2.5 5.11663H5.5C5.68889 5.11663 5.84734 5.18063 5.97534 5.30863C6.10334 5.43663 6.16711 5.59485 6.16667 5.78329C6.16622 5.97174 6.10222 6.13018 5.97467 6.25863C5.84711 6.38707 5.68889 6.45085 5.5 6.44996H2.5ZM4.66667 12C4.85556 12 5.014 11.936 5.142 11.808C5.27 11.68 5.33378 11.5217 5.33334 11.3333C5.33289 11.1448 5.26889 10.9866 5.14134 10.8586C5.01378 10.7306 4.85556 10.6666 4.66667 10.6666C4.47778 10.6666 4.31956 10.7306 4.192 10.8586C4.06445 10.9866 4.00045 11.1448 4 11.3333C3.99956 11.5217 4.06356 11.6802 4.192 11.8086C4.32045 11.9371 4.47867 12.0008 4.66667 12ZM11.3333 12C11.5222 12 11.6807 11.936 11.8087 11.808C11.9367 11.68 12.0004 11.5217 12 11.3333C11.9996 11.1448 11.9356 10.9866 11.808 10.8586C11.6804 10.7306 11.5222 10.6666 11.3333 10.6666C11.1444 10.6666 10.9862 10.7306 10.8587 10.8586C10.7311 10.9866 10.6671 11.1448 10.6667 11.3333C10.6662 11.5217 10.7302 11.6802 10.8587 11.8086C10.9871 11.9371 11.1453 12.0008 11.3333 12Z" fill="black"/>
</svg>
