<svg width="25" height="24" viewBox="0 0 25 24" fill="none" xmlns="http://www.w3.org/2000/svg">
<path fill-rule="evenodd" clip-rule="evenodd" d="M18.725 12.3086C17.585 12.3086 16.515 12.5386 15.615 12.9286C18.765 13.8386 20.995 16.0186 21.055 18.5686C22.695 18.3586 24.465 17.7386 24.465 16.0486C24.465 14.0186 21.835 12.3086 18.725 12.3086Z" fill="#D2D2D2"/>
<path fill-rule="evenodd" clip-rule="evenodd" d="M18.6948 10.8686H18.7148C20.8448 10.8686 22.5848 9.12867 22.5848 7.00867C22.5848 4.87867 20.8448 3.13867 18.7148 3.13867C18.2948 3.13867 17.8948 3.20867 17.5148 3.32867C18.2048 4.34867 18.6048 5.57867 18.6048 6.90867C18.6148 8.25867 18.1948 9.55867 17.4048 10.6386C17.8148 10.7886 18.2448 10.8686 18.6948 10.8686Z" fill="#D2D2D2"/>
<path fill-rule="evenodd" clip-rule="evenodd" d="M8.87491 12.9186C7.97491 12.5386 6.90491 12.3086 5.77491 12.3086C2.66491 12.3086 0.0349121 14.0186 0.0349121 16.0486C0.0349121 17.7386 1.79491 18.3486 3.43491 18.5686C3.48491 16.0186 5.71491 13.8386 8.87491 12.9186Z" fill="#D2D2D2"/>
<path fill-rule="evenodd" clip-rule="evenodd" d="M5.77504 10.8686H5.80504C6.25504 10.8686 6.68504 10.7886 7.09504 10.6386C6.33504 9.59867 5.88504 8.30867 5.88504 6.90867C5.88504 5.57867 6.28504 4.34867 6.97504 3.32867C6.59504 3.20867 6.19504 3.13867 5.77504 3.13867C3.64504 3.13867 1.91504 4.87867 1.91504 7.00867C1.91504 9.12867 3.64504 10.8686 5.77504 10.8686Z" fill="#D2D2D2"/>
<path fill-rule="evenodd" clip-rule="evenodd" d="M12.2445 13.9456C8.28352 13.9456 4.93652 16.1016 4.93652 18.6536C4.93652 21.9536 10.4365 21.9536 12.2445 21.9536C15.3825 21.9536 19.5545 21.6136 19.5545 18.6746C19.5545 16.1106 16.2065 13.9456 12.2445 13.9456Z" fill="#D2D2D2"/>
<path fill-rule="evenodd" clip-rule="evenodd" d="M12.2456 11.7746H12.2786C13.5736 11.7706 14.7896 11.2616 15.7016 10.3426C16.6146 9.42363 17.1146 8.20463 17.1096 6.91163C17.1096 4.22863 14.9286 2.04663 12.2456 2.04663C9.56357 2.04663 7.38257 4.22863 7.38257 6.91163C7.38257 9.59263 9.56357 11.7746 12.2456 11.7746Z" fill="#D2D2D2"/>
</svg>
